<?xml version="1.0" standalone="no"?>
<!DOCTYPE svg PUBLIC "-//W3C//DTD SVG 20010904//EN"
 "http://www.w3.org/TR/2001/REC-SVG-20010904/DTD/svg10.dtd">
<svg version="1.0" xmlns="http://www.w3.org/2000/svg"
 width="1416.000000pt" height="1416.000000pt" viewBox="0 0 1416.000000 1416.000000"
 preserveAspectRatio="xMidYMid meet">
<metadata>
Created by potrace 1.14, written by Peter Selinger 2001-2017
</metadata>
<g transform="translate(0.000000,1416.000000) scale(0.100000,-0.100000)"
fill="#000000" stroke="none">
<path d="M7619 11486 c-5 -6 -38 -10 -169 -21 -64 -5 -109 -13 -124 -23 -6 -3
-17 -7 -26 -8 -29 -3 -158 -42 -181 -55 -13 -7 -28 -14 -34 -15 -5 -2 -21 -5
-34 -8 -63 -14 -192 -49 -246 -67 -33 -11 -68 -22 -79 -24 -10 -3 -21 -6 -23
-9 -3 -2 -17 -1 -31 4 -20 5 -42 1 -77 -15 -28 -12 -53 -23 -57 -24 -4 -1 -26
-8 -49 -16 -23 -8 -45 -12 -50 -9 -5 3 -9 1 -9 -5 0 -5 -25 -15 -55 -21 -30
-6 -55 -16 -55 -21 0 -5 -6 -9 -14 -9 -7 0 -19 -7 -26 -15 -7 -8 -31 -20 -54
-27 -22 -7 -43 -15 -46 -18 -3 -3 -32 -19 -65 -35 -61 -29 -78 -43 -69 -57 3
-4 0 -9 -5 -9 -21 -3 -26 -4 -38 -12 -7 -5 -17 -6 -22 -2 -5 3 -16 -2 -24 -10
-9 -8 -20 -15 -26 -15 -6 0 -11 -3 -11 -8 0 -4 -12 -13 -27 -19 -16 -7 -43
-26 -61 -43 -18 -16 -37 -30 -42 -30 -5 0 -11 -9 -15 -19 -5 -17 -43 -33 -80
-35 -5 -1 -14 -11 -20 -23 -6 -13 -19 -23 -30 -23 -24 0 -75 -22 -75 -32 0 -3
-17 -12 -37 -18 -21 -7 -45 -18 -53 -25 -29 -24 -100 -55 -152 -66 -29 -6 -69
-19 -88 -29 -33 -17 -172 -18 -2620 -18 -1422 -1 -2593 -1 -2602 -1 -17 -1
-18 -206 -18 -4156 l0 -4155 7080 0 7080 0 0 4155 c0 3950 -1 4155 -17 4156
-10 0 -531 0 -1158 0 l-1140 0 -79 25 c-43 13 -88 26 -99 28 -13 2 -25 15 -31
33 -21 59 -58 93 -146 134 -47 22 -92 44 -100 48 -8 5 -17 21 -20 37 -3 16
-12 38 -20 50 -16 21 -92 62 -131 69 -69 14 -92 18 -122 21 -61 6 -93 13 -207
44 -63 17 -145 32 -182 34 -146 9 -201 20 -408 83 -219 67 -266 78 -276 62 -3
-5 -12 -3 -19 5 -16 16 -104 28 -152 22 -18 -3 -35 -1 -38 5 -4 5 -17 6 -30 3
-13 -3 -30 -2 -37 3 -7 4 -26 8 -43 9 -34 2 -160 13 -160 14 0 1 -27 3 -60 5
-33 3 -87 10 -120 16 -33 6 -69 12 -80 13 -11 1 -25 5 -31 9 -7 4 -26 5 -43 3
-18 -2 -31 1 -31 8 0 8 -2 8 -8 0 -4 -6 -16 -10 -27 -8 -11 2 -67 6 -125 8
-58 3 -121 7 -140 11 -19 3 -78 7 -130 10 -52 3 -111 7 -130 10 -19 3 -55 7
-80 9 -25 2 -70 8 -101 15 -31 6 -60 11 -65 9 -5 -1 -21 6 -37 16 -15 10 -49
20 -75 21 -26 2 -81 9 -122 15 -62 10 -237 21 -327 20 -12 0 -24 4 -27 9 -3 5
-20 6 -38 4 -46 -7 -49 -6 -88 1 -19 4 -38 5 -41 2z m-3015 -1338 c-2 -12 -23
-37 -43 -50 -13 -9 -40 -38 -60 -65 -48 -64 -62 -81 -85 -101 -54 -48 -141
-141 -161 -173 -26 -40 -24 -84 5 -99 27 -14 239 3 302 25 25 8 60 12 92 8 85
-9 124 -5 189 16 80 26 156 41 174 34 7 -3 25 3 39 12 15 10 43 18 63 20 20 1
52 6 71 11 42 10 41 9 60 16 45 17 111 29 160 28 61 -2 102 4 122 16 11 7 242
16 378 15 81 0 157 -8 188 -18 20 -8 32 -8 32 -2 0 6 5 7 10 4 6 -4 34 -8 63
-10 29 -2 75 -6 102 -9 28 -3 100 -9 160 -12 61 -3 130 -8 155 -10 64 -7 308
-7 354 0 141 20 252 42 406 81 58 14 112 28 120 30 8 2 15 4 15 5 0 5 97 22
115 20 48 -4 84 0 110 13 17 9 32 11 36 6 3 -5 13 -5 25 2 15 7 24 7 35 -1 11
-10 29 -9 81 0 38 7 76 14 85 16 10 1 22 -4 26 -13 7 -11 14 -13 28 -5 19 9
157 8 204 -2 59 -13 111 -29 116 -37 2 -5 16 -4 29 1 20 8 29 5 47 -13 16 -15
38 -24 68 -26 25 -1 52 -8 60 -14 8 -7 31 -21 50 -31 19 -11 37 -22 40 -25 16
-19 48 -29 59 -18 8 8 11 7 11 -6 0 -9 16 -24 35 -33 20 -9 44 -27 54 -40 10
-13 21 -21 24 -17 6 5 29 -14 115 -94 19 -18 39 -33 44 -33 4 0 8 -7 8 -15 0
-8 7 -15 15 -15 9 0 20 -11 25 -24 5 -13 19 -35 32 -48 13 -13 35 -37 49 -53
15 -17 35 -37 45 -46 11 -9 34 -42 53 -73 20 -33 38 -53 45 -49 6 3 8 3 4 -2
-4 -4 -1 -14 7 -22 8 -8 15 -26 15 -39 0 -14 11 -36 26 -49 14 -13 30 -43 35
-66 6 -23 18 -54 29 -69 10 -14 27 -46 36 -70 20 -51 92 -164 127 -200 13 -14
29 -37 35 -52 6 -16 18 -28 26 -28 8 0 16 -14 20 -34 4 -22 13 -36 26 -39 13
-3 22 -17 26 -36 4 -16 17 -37 30 -46 13 -8 24 -22 24 -29 0 -8 13 -20 29 -27
15 -7 38 -28 51 -46 12 -18 26 -33 30 -33 5 0 34 -25 66 -55 32 -30 64 -55 72
-55 7 0 15 -7 18 -15 4 -8 13 -15 21 -15 9 0 21 -6 27 -14 20 -25 338 -177
342 -164 0 2 7 -2 15 -9 8 -6 31 -14 52 -18 20 -4 37 -12 37 -17 0 -6 7 -7 16
-4 8 3 25 -1 38 -9 12 -8 26 -12 29 -8 4 3 15 -1 24 -9 10 -9 29 -15 43 -13
14 1 39 -2 55 -8 39 -12 112 -27 151 -31 17 -2 35 -6 41 -9 8 -5 176 -15 323
-20 14 0 48 3 75 8 52 9 63 11 105 19 14 2 43 7 65 11 74 12 151 32 173 44 12
6 22 10 22 7 0 -3 25 6 55 19 30 14 55 23 55 20 0 -2 12 0 28 6 15 6 34 12 42
14 8 2 29 8 46 13 17 6 44 9 60 7 31 -2 74 -24 74 -37 0 -4 6 -5 13 -2 8 3 20
-2 27 -11 7 -8 18 -15 25 -15 7 0 16 -7 19 -16 4 -9 9 -14 13 -10 3 3 15 -1
25 -11 10 -9 18 -12 18 -8 0 5 11 -2 25 -15 14 -13 25 -20 25 -17 0 12 73 -29
102 -57 15 -14 31 -26 36 -26 5 0 14 -11 21 -24 7 -13 28 -30 47 -39 19 -9 34
-21 34 -26 0 -4 17 -20 39 -34 21 -14 51 -46 67 -71 16 -26 36 -49 46 -51 9
-3 19 -12 22 -20 3 -8 12 -15 20 -15 8 0 17 -8 21 -17 8 -25 68 -91 85 -95 8
-2 21 -16 30 -33 9 -16 21 -29 28 -27 7 1 12 -7 12 -18 0 -11 8 -28 18 -38 9
-10 36 -41 60 -68 23 -27 50 -58 60 -69 10 -11 24 -35 31 -53 8 -18 24 -41 37
-51 13 -11 24 -26 24 -34 0 -9 5 -19 10 -22 6 -4 8 -10 5 -15 -3 -4 9 -13 25
-19 17 -5 34 -20 39 -33 5 -13 18 -32 30 -42 11 -11 21 -24 21 -31 0 -7 12
-25 27 -41 15 -16 28 -35 29 -42 1 -7 11 -21 23 -31 11 -9 23 -29 26 -44 4
-14 15 -29 25 -32 11 -3 22 -16 26 -28 4 -12 20 -38 35 -57 16 -19 29 -40 29
-46 0 -6 9 -19 20 -29 11 -10 20 -23 20 -30 0 -6 10 -21 23 -32 12 -11 31 -35
42 -54 34 -56 39 -64 63 -89 12 -14 25 -35 29 -48 3 -14 11 -21 19 -18 9 3 17
-7 24 -32 12 -45 20 -57 43 -65 13 -5 16 -11 9 -24 -5 -10 -7 -24 -4 -32 7
-19 41 -52 45 -43 7 14 0 1028 -8 1057 -4 17 -11 35 -15 40 -3 6 -13 30 -20
55 -7 25 -16 50 -20 55 -3 6 -12 28 -19 50 -7 22 -16 49 -21 60 -12 31 -34
109 -32 118 1 4 -3 7 -9 7 -6 0 -9 6 -6 14 3 7 0 19 -6 25 -6 6 -7 11 -3 11 5
0 3 7 -4 15 -7 9 -10 18 -7 22 4 3 2 12 -4 20 -6 7 -8 13 -5 13 4 0 2 9 -4 20
-6 11 -15 46 -21 77 -5 32 -15 68 -21 81 -8 15 -9 31 -2 50 8 21 3 46 -22 122
-56 165 -128 330 -146 330 -4 0 -8 6 -8 14 0 17 -101 125 -150 161 -21 16 -35
34 -36 49 -2 51 -75 122 -150 146 -20 7 -33 14 -30 17 2 3 -2 23 -10 45 -7 22
-11 52 -7 66 4 16 1 29 -8 36 -19 15 -40 64 -31 70 13 8 6 68 -12 111 -17 39
-22 54 -67 205 -22 74 -55 124 -91 136 -10 3 -18 14 -18 24 0 17 -135 298
-149 310 -6 5 -22 31 -45 75 -25 45 -109 170 -117 173 -5 2 -9 10 -9 18 0 8
-4 14 -8 14 -4 0 -15 12 -24 28 -9 15 -25 36 -35 47 -10 11 -31 37 -46 58 -24
32 -26 37 -10 38 10 0 342 0 737 1 672 0 721 -1 733 -17 8 -11 9 -24 3 -34 -5
-10 -4 -23 1 -33 6 -10 6 -19 0 -23 -6 -3 -7 -15 -2 -28 5 -12 5 -34 0 -49 -4
-16 -3 -30 2 -33 5 -4 5 -13 0 -23 -6 -11 -6 -24 0 -34 6 -10 6 -19 0 -23 -6
-3 -8 -12 -5 -19 7 -18 11 -96 4 -96 -7 0 -3 -117 5 -129 3 -6 2 -11 -4 -11
-5 0 -6 -11 -2 -27 4 -16 4 -40 0 -55 -4 -16 -3 -30 2 -33 5 -4 5 -14 -1 -25
-7 -13 -7 -21 0 -25 6 -4 7 -13 1 -23 -5 -9 -5 -26 -1 -37 4 -11 4 -32 -1 -47
-4 -16 -3 -30 2 -33 5 -4 5 -13 0 -23 -6 -11 -6 -24 0 -34 6 -10 6 -19 0 -23
-6 -3 -8 -12 -5 -19 7 -18 11 -96 4 -96 -7 0 -3 -117 5 -129 3 -6 2 -11 -4
-11 -5 0 -6 -11 -2 -27 4 -16 4 -40 0 -55 -4 -16 -3 -30 2 -33 5 -4 5 -14 -1
-25 -7 -13 -7 -21 0 -25 6 -4 7 -13 1 -23 -5 -9 -5 -26 -1 -37 4 -11 4 -32 -1
-47 -4 -16 -3 -30 2 -34 6 -3 6 -12 0 -22 -6 -10 -6 -23 0 -34 6 -10 5 -19 -1
-23 -5 -3 -7 -12 -4 -19 7 -18 11 -96 4 -96 -7 0 -3 -117 5 -129 3 -6 2 -11
-4 -11 -5 0 -6 -11 -2 -27 4 -16 4 -40 0 -55 -4 -16 -3 -30 2 -33 5 -4 5 -14
-1 -25 -7 -13 -7 -21 0 -25 6 -4 7 -13 1 -23 -5 -9 -5 -26 -1 -37 4 -11 4 -32
-1 -47 -4 -16 -3 -30 2 -34 6 -3 6 -12 0 -22 -6 -10 -6 -23 0 -34 6 -10 5 -19
-1 -23 -5 -3 -7 -12 -4 -19 7 -18 11 -96 4 -96 -7 0 -4 -96 4 -115 3 -8 1 -15
-4 -15 -5 0 -7 -6 -4 -13 9 -24 10 -98 2 -103 -5 -3 -5 -10 -2 -16 8 -13 8
-123 0 -136 -3 -6 -2 -13 3 -17 7 -4 7 -15 1 -30 -6 -16 -6 -25 1 -25 6 0 6
-6 1 -17 -5 -10 -6 -27 -2 -38 4 -11 4 -28 -1 -37 -6 -10 -5 -19 1 -23 7 -4 7
-12 0 -24 -5 -10 -7 -21 -4 -24 7 -7 7 -114 0 -144 -3 -13 0 -25 5 -28 5 -4 6
-12 2 -18 -10 -16 -10 -48 0 -69 4 -10 4 -18 0 -18 -10 0 -10 -41 0 -57 4 -7
4 -14 0 -16 -7 -4 -9 -65 -3 -74 2 -4 2 -92 0 -100 -2 -5 -1 -12 0 -18 3 -12
2 -86 0 -100 -1 -5 -1 -14 0 -20 3 -12 2 -86 0 -100 -1 -5 -1 -14 0 -20 3 -12
2 -86 0 -100 -1 -5 -1 -14 0 -20 5 -19 1 -127 -4 -132 -3 -3 -1 -14 5 -24 5
-11 6 -19 2 -19 -4 0 -8 -13 -8 -30 0 -16 4 -30 8 -30 5 0 5 -5 1 -12 -10 -15
-11 -78 -1 -78 4 0 4 -8 -1 -17 -5 -10 -6 -27 -2 -38 4 -11 5 -26 2 -33 -8
-23 -9 -56 0 -79 4 -13 4 -23 -2 -23 -5 0 -7 -6 -4 -13 9 -24 10 -98 2 -103
-5 -3 -5 -10 -2 -16 8 -13 8 -123 0 -136 -3 -6 -2 -13 4 -17 7 -4 7 -12 0 -25
-7 -13 -7 -21 0 -25 7 -4 7 -12 0 -24 -5 -10 -7 -21 -3 -25 8 -7 7 -112 -1
-125 -4 -5 -2 -12 2 -15 5 -3 6 -25 2 -50 -4 -24 -3 -52 2 -60 6 -10 5 -16 -1
-16 -5 0 -6 -11 -2 -27 4 -16 4 -40 0 -55 -4 -16 -3 -30 2 -33 5 -4 5 -14 -1
-25 -7 -13 -7 -21 0 -25 6 -4 7 -13 1 -23 -5 -9 -5 -26 -1 -37 4 -11 4 -32 -1
-47 -4 -16 -3 -30 2 -34 6 -3 6 -12 0 -22 -6 -10 -6 -23 0 -34 6 -10 5 -19 -1
-23 -5 -3 -7 -12 -4 -19 7 -18 11 -96 4 -96 -7 0 -3 -117 5 -129 3 -6 2 -11
-4 -11 -5 0 -6 -11 -2 -27 4 -16 4 -40 0 -55 -4 -16 -3 -30 2 -33 5 -4 5 -14
-1 -25 -7 -13 -7 -21 0 -25 6 -4 7 -13 1 -23 -5 -9 -5 -26 -1 -37 4 -11 4 -32
-1 -47 -4 -16 -3 -30 2 -34 6 -3 6 -12 0 -22 -6 -10 -6 -23 0 -34 6 -10 5 -19
-1 -23 -5 -3 -7 -12 -4 -19 7 -18 11 -96 4 -96 -7 0 -4 -96 4 -115 3 -8 1 -15
-4 -15 -5 0 -7 -6 -4 -13 9 -24 10 -98 2 -103 -5 -3 -5 -10 -2 -16 8 -13 8
-123 0 -136 -3 -6 -2 -13 4 -17 7 -4 7 -12 0 -25 -7 -13 -7 -21 0 -25 7 -4 7
-12 0 -24 -5 -10 -7 -21 -3 -25 8 -7 7 -112 -1 -125 -4 -5 -2 -12 3 -15 4 -3
5 -24 1 -46 -4 -23 -3 -40 2 -40 5 0 5 -7 -1 -17 -5 -10 -5 -26 -1 -39 5 -12
7 -24 4 -27 -9 -8 -10 -77 -2 -77 5 0 5 -8 -1 -17 -5 -10 -5 -26 -1 -39 5 -12
6 -24 4 -27 -9 -8 -9 -81 -1 -94 4 -6 3 -14 -3 -18 -6 -4 -7 -11 -4 -17 9 -14
8 -113 0 -127 -4 -5 -2 -12 4 -16 7 -4 7 -12 0 -25 -7 -13 -7 -21 0 -25 17
-10 -11 -37 -32 -32 -10 3 -18 1 -18 -5 0 -5 -5 -6 -11 -3 -16 11 -69 12 -69
2 0 -4 -5 -5 -11 -2 -16 11 -69 12 -69 2 0 -4 -5 -5 -11 -2 -16 11 -69 12 -69
2 0 -4 -5 -5 -11 -2 -16 11 -69 12 -69 2 0 -4 -5 -5 -11 -2 -16 11 -69 12 -69
2 0 -4 -5 -5 -11 -2 -16 11 -69 12 -69 2 0 -4 -5 -5 -11 -2 -16 11 -69 12 -69
2 0 -4 -5 -5 -11 -2 -16 11 -69 12 -69 2 0 -4 -5 -5 -11 -2 -16 11 -69 12 -69
2 0 -4 -5 -5 -11 -2 -16 11 -69 12 -69 2 0 -4 -5 -5 -11 -2 -13 9 -69 13 -69
6 0 -8 -166 -5 -185 3 -8 3 -15 1 -15 -4 0 -6 -9 -6 -25 0 -16 6 -26 6 -31 -1
-4 -7 -10 -7 -18 0 -7 6 -16 8 -19 5 -8 -9 -123 -8 -136 1 -6 3 -11 2 -11 -4
0 -7 -8 -7 -25 -1 -16 6 -26 6 -31 -1 -4 -7 -10 -7 -18 0 -7 6 -16 8 -19 5 -8
-9 -123 -8 -136 1 -6 3 -11 2 -11 -4 0 -7 -8 -7 -25 -1 -16 6 -26 6 -31 -1 -4
-7 -10 -7 -18 0 -7 6 -16 8 -19 5 -8 -9 -123 -8 -136 1 -6 3 -11 2 -11 -4 0
-7 -8 -7 -25 -1 -16 6 -26 6 -31 -1 -4 -7 -10 -7 -18 0 -7 6 -16 8 -19 5 -8
-9 -123 -8 -136 1 -6 3 -11 2 -11 -4 0 -7 -8 -7 -25 -1 -15 6 -26 6 -30 -1 -4
-5 -11 -6 -18 -2 -15 9 -57 10 -63 1 -3 -4 -16 -3 -29 2 -15 6 -27 6 -30 -1
-4 -6 -13 -6 -23 0 -10 6 -23 6 -34 0 -10 -6 -19 -5 -23 1 -3 5 -15 6 -28 1
-12 -5 -32 -5 -44 0 -13 5 -25 4 -28 -1 -3 -6 -15 -6 -30 0 -15 6 -27 6 -30
-1 -4 -6 -13 -6 -23 0 -10 6 -23 6 -34 0 -10 -6 -19 -5 -23 1 -3 5 -15 6 -28
1 -12 -5 -32 -5 -44 0 -13 5 -25 4 -28 -1 -3 -6 -15 -6 -30 0 -15 6 -27 6 -30
-1 -4 -6 -13 -6 -23 0 -10 6 -23 6 -34 0 -10 -6 -19 -5 -23 1 -3 5 -15 6 -28
1 -12 -5 -32 -5 -44 0 -13 5 -25 4 -28 -1 -3 -6 -15 -6 -30 0 -15 6 -27 6 -30
-1 -4 -6 -13 -6 -23 0 -10 6 -23 6 -34 0 -10 -6 -19 -5 -23 1 -3 5 -15 6 -28
1 -12 -5 -32 -5 -44 0 -13 5 -25 4 -28 -1 -3 -6 -15 -6 -30 0 -15 6 -27 6 -30
-1 -4 -6 -13 -6 -23 0 -10 6 -23 6 -34 0 -10 -6 -19 -5 -23 1 -3 5 -15 6 -28
1 -12 -5 -32 -5 -44 0 -13 5 -25 4 -28 -1 -3 -6 -15 -6 -29 0 -13 5 -26 7 -29
4 -7 -7 -183 -7 -196 0 -6 4 -11 3 -11 -3 0 -7 -8 -7 -25 -1 -16 6 -26 6 -31
-1 -4 -7 -10 -7 -18 0 -7 6 -16 8 -19 5 -8 -9 -123 -8 -136 1 -6 3 -11 2 -11
-4 0 -7 -8 -7 -25 -1 -16 6 -26 6 -31 -1 -4 -7 -10 -7 -18 0 -7 6 -16 8 -19 5
-8 -9 -123 -8 -136 1 -6 3 -11 2 -11 -4 0 -7 -8 -7 -25 -1 -16 6 -26 6 -31 -1
-4 -7 -10 -7 -18 0 -7 6 -16 8 -19 5 -8 -9 -123 -8 -136 1 -6 3 -11 2 -11 -4
0 -7 -8 -7 -25 -1 -16 6 -26 6 -31 -1 -4 -7 -10 -7 -18 0 -7 6 -16 8 -19 5 -8
-9 -123 -8 -136 1 -6 3 -11 2 -11 -4 0 -7 -8 -7 -25 -1 -15 6 -26 6 -30 -1 -4
-5 -11 -6 -18 -2 -15 9 -57 10 -63 1 -3 -4 -16 -3 -29 2 -15 6 -27 6 -30 -1
-4 -6 -13 -6 -23 0 -10 6 -23 6 -34 0 -10 -6 -19 -5 -23 1 -3 5 -15 6 -28 1
-12 -5 -32 -5 -44 0 -13 5 -25 4 -28 -1 -3 -6 -15 -6 -30 0 -15 6 -27 6 -30
-1 -4 -6 -13 -6 -23 0 -10 6 -23 6 -34 0 -10 -6 -19 -5 -23 1 -3 5 -15 6 -28
1 -12 -5 -32 -5 -44 0 -13 5 -25 4 -28 -1 -3 -6 -15 -6 -30 0 -15 6 -27 6 -30
-1 -4 -6 -13 -6 -23 0 -10 6 -23 6 -34 0 -10 -6 -19 -5 -23 1 -3 5 -15 6 -28
1 -12 -5 -32 -5 -44 0 -13 5 -25 4 -28 -1 -3 -6 -15 -6 -30 0 -15 6 -27 6 -30
-1 -4 -6 -13 -6 -23 0 -10 6 -23 6 -34 0 -10 -6 -19 -5 -23 1 -3 5 -15 6 -28
1 -12 -5 -32 -5 -44 0 -13 5 -25 4 -28 -1 -3 -6 -15 -6 -30 0 -15 6 -27 6 -30
-1 -4 -6 -13 -6 -23 0 -10 6 -23 6 -34 0 -10 -6 -19 -5 -23 1 -3 5 -15 6 -28
1 -12 -5 -32 -5 -44 0 -13 5 -25 4 -28 -2 -4 -5 -11 -7 -16 -3 -15 9 -129 10
-129 1 0 -5 -5 -5 -11 -2 -16 11 -69 12 -69 2 0 -4 -5 -5 -11 -2 -16 11 -69
12 -69 2 0 -4 -5 -5 -11 -2 -16 11 -69 12 -69 2 0 -4 -5 -5 -11 -2 -16 11 -69
12 -69 2 0 -4 -5 -5 -11 -2 -16 11 -69 12 -69 2 0 -4 -5 -5 -11 -2 -16 11 -69
12 -69 2 0 -4 -5 -5 -11 -2 -16 11 -69 12 -69 2 0 -4 -5 -5 -11 -2 -16 11 -69
12 -69 2 0 -4 -5 -5 -11 -2 -16 11 -69 12 -69 2 0 -4 -5 -5 -11 -2 -16 11 -69
12 -69 2 0 -4 -5 -5 -11 -2 -16 11 -69 12 -69 2 0 -4 -5 -5 -11 -2 -16 11 -69
12 -69 2 0 -4 -5 -5 -11 -2 -16 11 -69 12 -69 2 0 -4 -5 -5 -11 -2 -16 11 -69
12 -69 2 0 -4 -5 -5 -11 -2 -13 9 -69 13 -69 6 0 -8 -69 -6 -76 2 -3 3 -17 2
-30 -3 -14 -6 -26 -6 -29 0 -3 6 -15 6 -30 0 -15 -6 -25 -6 -25 0 0 5 -12 5
-27 1 -16 -5 -37 -5 -48 -1 -11 4 -25 3 -32 -2 -7 -5 -14 -5 -17 1 -4 7 -15 7
-31 1 -15 -6 -27 -6 -30 0 -3 6 -15 6 -30 0 -15 -6 -25 -6 -25 0 0 5 -12 5
-27 1 -16 -5 -37 -5 -48 -1 -11 4 -25 3 -32 -2 -7 -5 -14 -5 -17 1 -4 7 -15 7
-31 1 -15 -6 -27 -6 -30 0 -3 6 -15 6 -30 0 -15 -6 -25 -6 -25 0 0 5 -12 5
-27 1 -16 -5 -37 -5 -48 -1 -11 4 -25 3 -32 -2 -7 -5 -14 -5 -17 1 -4 7 -15 7
-31 1 -15 -6 -27 -6 -30 0 -3 6 -15 6 -30 0 -15 -6 -25 -6 -25 0 0 5 -12 5
-27 1 -16 -5 -37 -5 -48 -1 -11 4 -25 3 -32 -2 -7 -5 -14 -5 -17 1 -4 7 -15 7
-31 1 -15 -6 -27 -6 -30 0 -3 6 -15 6 -30 0 -15 -6 -25 -6 -25 0 0 5 -12 5
-27 1 -16 -5 -37 -5 -48 -1 -11 4 -25 3 -32 -2 -7 -5 -14 -5 -17 1 -4 7 -15 7
-31 1 -15 -6 -27 -6 -30 0 -3 6 -15 6 -30 0 -15 -6 -25 -6 -25 0 0 5 -12 5
-27 1 -16 -5 -37 -5 -48 -1 -11 4 -25 3 -32 -2 -7 -5 -14 -5 -17 1 -4 7 -15 7
-31 1 -15 -6 -27 -6 -30 0 -3 6 -15 6 -30 0 -15 -6 -25 -6 -25 0 0 5 -12 5
-27 1 -16 -5 -37 -5 -48 -1 -11 4 -25 3 -32 -2 -7 -5 -14 -5 -17 1 -4 7 -15 7
-31 1 -15 -6 -27 -6 -30 0 -3 6 -15 6 -30 0 -15 -6 -25 -6 -25 0 0 5 -12 5
-27 1 -16 -5 -37 -5 -48 -1 -11 4 -25 3 -32 -2 -7 -5 -14 -5 -17 1 -4 7 -15 7
-31 1 -15 -6 -27 -6 -30 0 -3 6 -15 6 -30 0 -15 -6 -25 -6 -25 0 0 5 -12 5
-27 1 -16 -5 -37 -5 -48 -1 -11 4 -25 3 -32 -2 -7 -5 -14 -5 -17 1 -4 7 -15 7
-31 1 -15 -6 -27 -6 -30 0 -3 6 -15 6 -30 0 -15 -6 -25 -6 -25 0 0 5 -12 5
-27 1 -16 -5 -37 -5 -48 -1 -11 4 -25 3 -32 -2 -7 -5 -14 -5 -17 1 -4 7 -15 7
-30 1 -13 -5 -27 -6 -30 -3 -9 9 -106 9 -106 0 0 -5 -5 -5 -11 -2 -16 11 -69
12 -69 2 0 -4 -5 -5 -11 -2 -16 11 -69 12 -69 2 0 -4 -5 -5 -11 -2 -16 11 -69
12 -69 2 0 -4 -5 -5 -11 -2 -16 11 -69 12 -69 2 0 -4 -5 -5 -11 -2 -16 11 -69
12 -69 2 0 -4 -5 -5 -11 -2 -16 11 -69 12 -69 2 0 -4 -5 -5 -11 -2 -16 11 -69
12 -69 2 0 -4 -5 -5 -11 -2 -16 11 -69 12 -69 2 0 -4 -5 -5 -11 -2 -16 11 -69
12 -69 2 0 -4 -5 -5 -11 -2 -16 11 -69 12 -69 2 0 -4 -5 -5 -11 -2 -16 11 -69
12 -69 2 0 -4 -5 -5 -11 -2 -16 11 -69 12 -69 2 0 -4 -5 -5 -11 -2 -16 11 -69
12 -69 2 0 -4 -5 -5 -11 -2 -16 11 -69 12 -69 2 0 -4 -5 -5 -11 -2 -13 9 -69
13 -69 6 0 -8 -166 -5 -185 3 -8 3 -15 1 -15 -4 0 -6 -9 -6 -25 0 -16 6 -26 6
-31 -1 -4 -7 -10 -7 -18 0 -7 6 -16 8 -19 5 -8 -9 -123 -8 -136 1 -6 3 -11 2
-11 -4 0 -7 -8 -7 -25 -1 -16 6 -26 6 -31 -1 -4 -7 -10 -7 -18 0 -7 6 -16 8
-19 5 -8 -9 -123 -8 -136 1 -6 3 -11 2 -11 -4 0 -7 -8 -7 -25 -1 -16 6 -26 6
-31 -1 -4 -7 -10 -7 -18 0 -7 6 -16 8 -19 5 -8 -9 -123 -8 -136 1 -6 3 -11 2
-11 -4 0 -7 -8 -7 -25 -1 -16 6 -26 6 -31 -1 -4 -7 -10 -7 -18 0 -7 6 -16 8
-19 5 -8 -9 -123 -8 -136 1 -6 3 -11 2 -11 -4 0 -7 -8 -7 -25 -1 -15 6 -26 6
-30 -1 -4 -5 -11 -6 -18 -2 -15 9 -57 10 -63 1 -3 -4 -16 -3 -29 2 -15 6 -27
6 -30 -1 -4 -6 -13 -6 -23 0 -10 6 -23 6 -34 0 -10 -6 -19 -5 -23 1 -3 5 -15
6 -28 1 -12 -5 -32 -5 -44 0 -13 5 -25 4 -28 -1 -3 -6 -15 -6 -30 0 -15 6 -27
6 -30 0 -4 -6 -13 -7 -23 -1 -11 6 -24 6 -34 0 -10 -6 -19 -6 -23 0 -3 6 -15
7 -28 2 -12 -5 -32 -5 -44 0 -13 5 -25 4 -28 -1 -3 -6 -15 -6 -30 0 -15 6 -27
6 -30 -1 -4 -6 -13 -6 -23 0 -10 6 -23 6 -34 0 -10 -6 -19 -5 -23 1 -3 5 -15
6 -28 1 -12 -5 -32 -5 -44 0 -13 5 -25 4 -28 -1 -3 -6 -15 -6 -30 0 -15 6 -27
6 -30 0 -4 -6 -13 -7 -24 -1 -9 5 -23 6 -30 2 -15 -9 -63 -2 -56 9 2 3 1 20
-4 36 -4 16 -5 41 0 55 4 15 3 32 -1 40 -5 7 -6 17 -3 23 9 14 9 66 1 66 -4 0
-4 10 1 23 5 13 5 30 0 39 -6 11 -5 19 1 23 7 4 7 12 0 25 -6 10 -7 21 -3 23
7 4 9 60 3 77 -2 7 -1 86 3 133 1 21 -1 41 -6 44 -4 3 -3 11 3 18 8 9 8 15 0
20 -7 4 -7 12 0 25 6 12 7 21 0 25 -6 4 -6 15 0 30 6 16 6 25 -1 25 -6 0 -6 7
1 20 7 14 7 26 1 39 -6 10 -7 21 -4 25 8 8 10 67 2 72 -3 2 -3 24 1 48 4 25 3
50 -1 57 -4 6 -3 24 1 39 4 15 4 33 0 41 -5 7 -6 17 -3 22 8 14 10 67 2 67 -4
0 -4 13 1 29 4 15 4 34 0 41 -5 7 -4 24 1 37 6 18 6 22 -3 17 -7 -4 -8 -3 -4
4 10 17 13 93 3 99 -4 2 -3 11 3 18 8 9 8 15 0 20 -7 4 -7 12 0 25 6 12 7 21
0 25 -6 4 -6 15 0 30 6 17 6 25 -1 25 -6 0 -7 6 0 17 5 10 5 26 1 39 -5 12 -7
24 -4 27 8 8 10 88 2 93 -4 3 -3 15 2 28 5 13 6 27 3 30 -4 3 -6 30 -4 59 2
49 2 112 0 140 0 6 0 23 0 37 1 14 1 32 1 40 -1 8 1 30 3 48 2 17 0 32 -4 32
-4 0 -4 13 1 28 4 16 4 36 -2 45 -6 11 -5 17 2 17 7 0 8 6 0 19 -5 11 -7 22
-3 24 7 4 9 60 3 77 -2 7 -1 86 3 133 1 21 -1 41 -6 44 -4 3 -3 11 3 18 8 9 8
15 0 20 -7 4 -7 12 0 25 6 12 7 21 0 25 -6 4 -6 15 0 30 6 16 6 25 -1 25 -6 0
-6 7 1 20 7 14 7 26 1 39 -6 10 -7 21 -4 25 8 8 10 67 2 72 -3 2 -3 24 1 48 4
25 3 50 -1 57 -4 6 -3 24 1 39 4 15 4 33 0 41 -5 7 -6 17 -3 22 8 14 10 67 2
67 -4 0 -4 13 1 29 4 15 4 34 0 41 -5 7 -4 24 1 37 6 18 6 22 -3 17 -7 -4 -8
-3 -4 4 10 17 13 93 3 99 -4 2 -3 11 3 18 8 9 8 15 0 20 -7 4 -7 12 0 25 6 12
7 21 0 25 -6 4 -6 15 0 30 6 17 6 25 -1 25 -6 0 -7 6 0 17 5 10 5 26 1 39 -5
12 -7 24 -4 27 8 8 10 88 2 93 -4 3 -3 15 2 28 5 13 6 27 3 30 -4 3 -6 30 -4
59 2 49 2 112 0 140 0 6 0 23 0 37 1 14 1 32 1 40 -1 8 1 30 3 48 2 17 0 32
-4 32 -4 0 -4 13 1 28 4 16 4 36 -2 45 -6 11 -5 17 2 17 7 0 8 6 0 19 -5 11
-7 22 -3 24 7 4 9 60 3 77 -2 7 -1 86 3 133 1 21 -1 41 -6 44 -4 3 -3 11 3 18
8 9 8 15 0 20 -7 4 -7 12 0 25 6 12 7 21 0 25 -6 4 -6 15 0 30 6 16 6 25 -1
25 -6 0 -6 7 1 20 7 14 7 26 1 39 -6 10 -7 21 -4 25 8 8 10 67 2 72 -3 2 -3
24 1 48 4 25 3 50 -1 57 -4 6 -3 24 1 39 4 15 4 33 0 41 -5 7 -6 17 -3 22 8
14 10 67 2 67 -4 0 -4 13 1 29 4 15 4 34 0 41 -5 7 -4 24 1 37 6 18 6 22 -3
17 -7 -4 -8 -3 -4 4 10 17 13 93 3 99 -4 2 -3 11 3 18 8 9 8 15 0 20 -7 4 -7
12 0 25 6 12 7 21 0 25 -6 4 -6 15 0 30 6 17 6 25 -1 25 -6 0 -7 6 0 17 5 10
5 26 1 39 -5 12 -7 24 -4 27 8 8 10 88 2 93 -4 3 -3 15 2 28 5 13 6 27 3 30
-4 3 -6 30 -4 59 2 49 2 112 0 140 0 6 0 23 0 37 1 14 1 32 1 40 -1 8 1 30 3
48 2 17 0 32 -4 32 -4 0 -4 13 1 28 4 16 4 36 -2 45 -6 11 -5 17 2 17 7 0 8 6
0 19 -5 11 -7 22 -3 24 7 4 9 60 3 77 -2 7 -1 86 3 133 1 21 -1 41 -6 44 -4 3
-3 11 3 18 8 9 8 15 0 20 -7 4 -7 12 0 25 6 12 7 21 0 25 -6 4 -6 15 0 30 6
16 6 25 -1 25 -6 0 -6 7 1 20 7 14 8 26 0 39 -5 11 -7 22 -3 24 9 6 9 64 1 72
-3 3 -2 25 2 50 4 24 3 49 -1 56 -4 6 -3 24 1 39 4 15 4 33 0 41 -5 7 -6 17
-3 22 8 14 10 67 2 67 -4 0 -4 13 1 29 4 15 4 34 0 41 -5 7 -4 24 1 37 6 18 6
22 -3 17 -7 -4 -8 -3 -4 4 10 17 13 93 3 99 -4 2 -3 11 3 18 8 9 8 15 0 20 -7
4 -7 12 0 25 6 12 7 21 0 25 -6 4 -6 15 0 30 6 16 6 25 -1 25 -6 0 -6 6 -1 18
5 9 6 26 2 37 -6 17 -2 44 10 65 2 3 -2 14 -8 26 -16 31 -2 42 58 46 76 4
4145 1 4144 -4z"/>
<path d="M1122 9190 c-10 -7 -9 -80 1 -80 4 0 5 -4 2 -10 -4 -7 96 -10 293
-10 l299 0 0 -759 c0 -417 3 -762 6 -768 3 -5 27 -9 54 -8 l48 1 0 764 1 765
299 5 300 5 1 35 c1 71 60 65 -652 65 -355 0 -649 -2 -652 -5z"/>
<path d="M2967 9186 c-2 -6 -3 -375 -3 -821 l1 -810 55 0 55 0 0 375 0 375
577 2 577 1 0 -341 c0 -188 0 -358 1 -378 l0 -35 53 -1 54 0 -2 426 c0 234 3
434 7 443 5 9 5 19 1 21 -10 6 -9 209 0 224 4 7 4 14 0 16 -10 6 -9 209 1 225
3 6 3 13 -1 15 -10 6 -9 199 1 215 4 6 3 12 -3 12 -5 0 -8 9 -6 20 2 11 1 20
-3 21 -4 0 -28 2 -54 3 l-48 2 -1 -40 c0 -23 -1 -198 -2 -391 l-2 -350 -575 0
-575 0 0 388 c0 257 -3 387 -10 388 -61 5 -95 3 -98 -5z"/>
<path d="M4989 9155 c0 -49 0 -1552 1 -1580 0 -20 4 -21 605 -21 670 1 616 -5
613 67 l-1 35 -554 0 c-304 -1 -553 1 -554 4 -3 14 -4 687 -1 696 2 9 90 12
310 12 169 0 328 1 355 1 l47 1 -2 45 c-1 38 -4 45 -22 46 -12 0 -171 0 -353
0 -245 1 -333 4 -334 12 -3 33 -4 594 -1 607 3 13 70 15 538 15 479 -1 537 1
544 15 5 9 5 22 1 29 -4 7 -6 22 -4 34 l4 22 -595 0 -596 0 -1 -40z"/>
<path d="M11015 6962 c-1 -2 -17 -5 -33 -7 -124 -16 -254 -84 -347 -181 -43
-45 -80 -96 -77 -106 1 -4 -1 -8 -6 -8 -10 0 -49 -91 -58 -135 -15 -73 -22
-207 -14 -237 4 -12 5 -19 14 -63 12 -66 72 -178 123 -232 150 -157 338 -218
588 -190 80 9 98 13 172 39 l63 23 1 47 c3 157 0 187 -13 184 -7 -2 -31 -11
-53 -21 -22 -9 -47 -19 -55 -20 -8 -2 -15 -4 -15 -5 0 -6 -109 -21 -172 -25
-34 -2 -67 -6 -73 -10 -5 -3 -10 -1 -10 5 0 6 -6 10 -12 9 -22 -4 -81 13 -130
37 -85 43 -154 125 -175 210 -17 68 -5 225 18 240 5 3 9 13 9 23 0 16 93 120
131 146 58 41 120 55 227 51 94 -3 186 -23 245 -53 32 -16 29 -27 31 114 1 68
-3 108 -11 120 -7 9 -13 14 -13 11 0 -3 -20 0 -43 7 -65 19 -299 40 -312 27z"/>
<path d="M2483 6939 c-15 -5 -17 -55 -17 -562 l-1 -557 325 0 c182 0 344 5
369 11 47 10 124 43 148 62 90 72 123 141 120 247 -4 87 -25 136 -84 191 -44
41 -106 79 -131 79 -9 1 3 10 27 21 155 73 187 281 62 406 -42 42 -143 90
-208 99 -64 8 -588 11 -610 3z m499 -224 c5 -6 8 -6 8 2 0 16 47 7 85 -17 84
-52 76 -163 -13 -206 -30 -14 -66 -18 -182 -19 -80 0 -151 3 -157 8 -17 13
-18 234 -2 239 26 9 254 2 261 -7z m111 -437 c112 -34 128 -164 27 -221 -31
-18 -56 -20 -210 -22 -96 -1 -181 1 -187 3 -10 3 -13 38 -13 127 l0 123 173 1
c100 0 188 -5 210 -11z"/>
<path d="M3761 6928 c-9 -25 -5 -738 4 -784 5 -21 9 -41 9 -44 1 -3 13 -30 28
-60 53 -109 182 -203 313 -231 82 -17 198 -15 270 5 33 9 68 19 79 21 10 2 26
11 36 20 9 8 22 15 28 15 17 0 138 122 146 148 4 12 11 22 15 22 4 0 8 6 8 13
1 6 8 34 17 61 12 41 15 116 16 438 l0 388 -22 1 c-62 2 -210 -1 -216 -5 -4
-2 -7 -168 -7 -368 1 -275 -2 -373 -12 -403 -30 -91 -122 -146 -238 -141 -38
2 -86 10 -106 19 -50 21 -105 77 -117 118 -5 19 -9 141 -9 270 0 130 -3 241
-7 247 -4 7 -4 12 1 12 12 0 8 229 -4 241 -6 6 -59 11 -118 12 -93 2 -108 0
-114 -15z"/>
<path d="M5210 6940 l-95 -5 0 -557 -1 -558 124 0 123 0 -4 45 c-2 24 1 49 7
55 6 6 6 10 0 10 -11 0 -11 130 0 148 4 7 4 12 -1 12 -10 0 -10 261 1 278 4 6
4 12 -1 12 -4 0 -8 27 -8 60 0 33 2 60 4 60 5 0 5 -1 101 -127 41 -54 79 -103
85 -109 5 -6 20 -24 32 -40 12 -16 57 -74 99 -129 42 -55 106 -140 143 -188
l66 -88 105 3 104 3 1 553 c0 305 -4 556 -9 559 -7 5 -58 6 -188 4 l-48 -1 0
-340 c0 -187 -3 -340 -7 -339 -5 0 -39 43 -78 95 -38 53 -78 105 -87 117 -10
12 -67 87 -128 167 -61 80 -123 160 -138 179 -15 18 -31 40 -36 49 -4 8 -22
29 -40 46 l-31 31 -95 -5z"/>
<path d="M6528 6942 c-54 -3 -57 -4 -49 -25 8 -25 7 -59 -3 -76 -4 -6 -3 -11
2 -11 5 0 6 -17 2 -40 -4 -22 -5 -40 -1 -40 3 0 6 -11 6 -25 0 -14 -3 -25 -7
-25 -4 0 -4 -10 0 -22 9 -26 8 -60 -2 -77 -4 -6 -3 -11 2 -11 5 0 6 -17 2 -39
-4 -22 -3 -45 1 -52 4 -8 3 -19 -3 -26 -6 -7 -6 -13 -1 -13 10 0 9 -82 -1 -99
-4 -6 -3 -11 2 -11 5 0 6 -17 2 -40 -4 -22 -5 -40 -1 -40 3 0 6 -11 6 -25 0
-14 -3 -25 -7 -25 -4 0 -4 -10 0 -22 9 -26 8 -60 -2 -77 -4 -6 -3 -11 2 -11 5
0 6 -17 2 -39 -4 -22 -3 -45 1 -52 4 -8 3 -19 -3 -26 -6 -7 -6 -13 -1 -13 10
0 9 -82 -1 -99 -4 -6 -3 -11 2 -11 5 0 7 -11 4 -25 l-4 -26 280 1 c206 1 294
5 333 15 82 22 174 72 228 123 48 47 119 148 126 180 2 9 10 34 19 54 26 62
38 216 22 291 -3 15 -8 39 -12 54 -5 27 -62 151 -86 188 -30 45 -119 123 -179
155 -35 18 -66 34 -69 33 -5 -1 -11 1 -55 14 -16 6 -79 11 -140 12 -193 5
-358 6 -417 3z m527 -242 c61 -28 114 -80 145 -143 46 -93 55 -164 34 -264
-12 -61 -61 -151 -100 -184 -60 -53 -93 -62 -237 -64 -76 -2 -141 -6 -144 -9
-3 -3 -11 0 -17 7 -9 9 -11 101 -10 337 1 179 2 328 3 331 2 13 295 2 326 -11z"/>
<path d="M8228 6942 c-75 -3 -78 -4 -84 -30 -4 -15 -10 -31 -14 -37 -4 -5 -17
-35 -28 -65 -11 -30 -28 -72 -36 -92 -9 -21 -17 -41 -18 -45 0 -5 -13 -37 -28
-73 -33 -80 -42 -102 -46 -115 -2 -5 -21 -55 -44 -110 -23 -55 -43 -104 -44
-110 -1 -5 -8 -21 -16 -35 -7 -14 -13 -26 -12 -27 1 -2 -5 -17 -12 -35 -7 -18
-17 -42 -21 -53 -4 -11 -9 -24 -11 -30 -1 -5 -25 -66 -53 -134 -28 -69 -51
-126 -51 -128 0 -9 280 -2 281 7 2 13 4 21 12 40 3 8 16 43 28 78 l22 62 238
0 237 0 18 -52 c9 -29 20 -57 24 -63 5 -5 8 -12 8 -15 0 -3 3 -17 7 -32 l7
-28 140 0 139 0 -6 23 c-4 12 -13 36 -21 52 -31 71 -134 330 -136 344 -2 9 -7
19 -11 22 -5 3 -9 12 -11 20 -1 8 -7 24 -14 35 -6 12 -8 24 -5 28 3 3 1 6 -5
6 -7 0 -11 3 -10 8 1 4 -49 136 -112 294 l-115 286 -60 4 c-33 2 -95 2 -137 0z
m116 -424 c64 -182 86 -240 97 -260 5 -10 9 -26 9 -35 0 -16 -14 -18 -160 -18
-115 0 -160 3 -160 12 0 6 16 53 35 103 19 50 35 98 35 106 0 8 5 14 10 14 6
0 9 3 8 8 -4 10 65 202 73 202 3 0 27 -60 53 -132z"/>
<path d="M9193 6942 l-43 -3 0 -560 0 -560 122 3 122 3 -1 337 c0 186 3 335 7
333 4 -2 27 -30 51 -62 24 -32 47 -59 52 -61 4 -2 7 -9 7 -16 0 -6 9 -18 20
-26 11 -8 20 -20 20 -26 0 -7 3 -14 8 -16 4 -1 36 -41 72 -88 35 -47 67 -87
70 -90 3 -3 17 -21 30 -40 26 -38 29 -42 61 -80 11 -14 46 -58 76 -97 l56 -73
103 0 104 0 0 559 c0 357 -4 561 -10 563 -5 2 -60 2 -122 0 l-113 -3 1 -335
c0 -184 -3 -337 -7 -339 -3 -3 -21 17 -40 43 -18 26 -35 49 -39 52 -3 3 -18
23 -35 45 -16 22 -40 51 -52 65 -13 14 -23 30 -23 37 0 6 -4 13 -8 15 -5 2
-38 41 -73 88 -35 47 -66 87 -70 90 -3 3 -48 61 -99 129 -52 68 -96 119 -98
113 -2 -7 -8 -9 -14 -6 -11 7 -77 10 -135 6z"/>
<path d="M11797 6942 c-9 -2 -17 -11 -18 -20 -3 -77 0 -1094 3 -1098 3 -3 206
-6 451 -7 l446 -2 0 113 c-1 104 -8 138 -24 112 -4 -6 -11 -7 -17 -4 -16 10
-419 11 -440 1 -10 -4 -18 -4 -18 1 0 9 -94 7 -110 -3 -5 -3 -10 -1 -10 6 0 8
-4 8 -15 -1 -13 -11 -19 -5 -14 13 0 1 -4 14 -10 30 -6 15 -7 27 -2 27 9 0 7
67 -2 76 -3 4 -2 17 3 30 7 16 6 24 -1 24 -8 0 -8 4 0 13 6 8 8 17 4 20 -8 9
-14 8 202 10 l180 2 1 97 c1 63 -3 98 -10 100 -6 2 -93 4 -194 3 l-183 -1 2
41 c2 23 -1 47 -5 53 -4 7 -3 12 1 12 5 0 7 28 5 63 l-4 63 308 -1 c170 0 316
1 324 3 12 2 15 22 14 108 -1 58 -4 107 -7 110 -5 6 -832 11 -860 6z"/>
<path d="M1465 6923 c-5 -10 -9 -20 -10 -23 -5 -14 -19 -48 -30 -75 -7 -16
-16 -41 -20 -55 -4 -14 -11 -29 -15 -35 -4 -5 -13 -28 -20 -50 -7 -22 -21 -58
-31 -80 -10 -22 -31 -74 -47 -115 -16 -41 -33 -84 -37 -95 -5 -11 -9 -22 -10
-25 -1 -3 -7 -18 -14 -35 -6 -16 -37 -93 -67 -170 -70 -176 -83 -210 -105
-260 -9 -22 -20 -50 -24 -63 l-7 -23 138 3 138 3 18 50 c10 28 25 69 34 93
l16 42 237 0 237 0 33 -95 33 -95 139 0 139 0 -10 28 c-6 15 -14 36 -19 47 -5
11 -19 45 -31 75 -11 30 -26 66 -32 80 -6 14 -14 34 -18 45 -32 81 -115 286
-126 312 -8 17 -14 34 -14 38 0 4 -6 21 -14 38 -8 18 -38 91 -66 162 -28 72
-55 139 -60 150 -5 11 -20 47 -34 80 l-24 60 -135 3 c-121 2 -135 1 -142 -15z
m153 -280 c-1 -8 4 -24 22 -68 4 -11 13 -36 20 -55 7 -19 16 -44 20 -55 10
-24 70 -186 74 -200 2 -5 7 -18 11 -29 5 -10 4 -21 -3 -25 -8 -5 -231 -7 -304
-2 -17 1 -17 4 -2 44 9 23 20 51 24 62 5 11 23 61 41 110 17 50 35 99 39 110
4 11 8 23 9 28 0 4 8 21 16 37 9 17 13 30 10 30 -4 0 -3 5 0 10 7 12 26 14 23
3z"/>
<path d="M1235 5320 c-7 -11 -4 -1630 3 -1631 4 -1 28 -2 55 -3 l47 -2 0 51
c1 27 1 185 1 351 l1 300 288 0 289 -1 49 -75 c110 -169 142 -221 142 -230 0
-6 5 -10 10 -10 6 0 10 -7 10 -15 0 -8 5 -15 10 -15 6 0 10 -5 10 -10 0 -6 5
-16 10 -23 21 -24 90 -138 90 -147 0 -6 5 -10 10 -10 6 0 10 -5 10 -10 0 -6 5
-16 10 -23 6 -7 27 -39 48 -72 l38 -60 57 0 c31 -1 57 2 57 5 0 3 -11 22 -25
42 -14 20 -25 42 -25 47 0 6 -3 11 -8 11 -4 0 -12 9 -17 20 -6 10 -61 99 -123
197 -62 98 -142 224 -178 280 -36 57 -62 108 -59 113 4 6 10 8 14 5 13 -7 108
24 165 53 51 27 186 152 186 172 0 6 8 22 17 37 10 14 18 31 20 37 1 6 5 22 9
36 4 14 9 63 11 110 10 177 -71 314 -237 403 -124 67 -148 70 -593 71 -219 1
-400 -1 -402 -4z m340 -100 c2 3 29 3 59 0 31 -3 61 -3 66 0 6 4 33 3 61 0 27
-4 52 -4 54 0 2 3 29 3 60 0 31 -3 58 -2 61 2 3 5 9 6 14 3 4 -3 25 -7 46 -10
77 -10 155 -36 185 -62 8 -7 20 -13 25 -13 18 0 84 -72 116 -128 31 -54 33
-62 33 -157 0 -91 -3 -105 -30 -158 -36 -71 -95 -128 -172 -167 -96 -49 -148
-55 -494 -55 l-314 1 -3 372 -2 373 60 -2 c33 -1 62 0 65 3 3 2 28 2 55 -2 28
-4 53 -4 55 0z"/>
<path d="M3034 5315 c-2 -5 -2 -374 -1 -820 l2 -810 608 0 c577 -1 607 0 608
17 0 10 1 33 2 51 l1 32 -554 1 c-532 1 -554 2 -560 20 -4 10 -4 30 0 43 3 13
3 46 0 73 -4 27 -4 51 -1 52 3 2 4 57 1 121 -3 64 -3 118 0 120 3 2 3 56 0
120 -3 64 -2 119 2 121 3 2 4 12 1 22 -4 18 11 19 347 19 254 0 354 3 359 11
4 7 5 28 3 47 l-4 35 -353 0 -353 0 -1 121 c-1 67 -4 125 -6 130 -3 4 -2 10 2
12 5 3 6 58 3 122 -3 64 -3 119 -1 121 3 2 3 31 2 64 -2 44 1 60 11 61 7 1
251 2 543 3 l530 1 0 43 c0 24 -2 46 -5 50 -8 12 -1182 9 -1186 -3z"/>
<path d="M4669 5315 c-5 -62 -5 -86 1 -90 5 -3 394 -6 480 -4 8 1 38 0 65 -2
l51 -2 -1 -751 c-1 -413 1 -758 4 -766 4 -10 21 -15 56 -16 l50 -1 0 766 0
766 58 1 c31 1 59 3 62 6 2 2 29 1 60 -2 30 -3 60 -3 65 0 6 4 33 3 61 0 27
-4 52 -3 55 2 3 5 9 6 13 4 4 -3 29 -5 57 -5 27 -1 75 -1 107 -1 33 -1 57 3
58 9 3 44 1 82 -5 88 -12 12 -1296 10 -1297 -2z"/>
<path d="M6453 5317 c-4 -6 -7 -1585 -3 -1627 0 -3 24 -6 53 -5 l52 0 0 108
c0 59 2 107 5 107 3 0 6 9 6 20 0 11 -3 20 -6 20 -10 0 -5 435 5 441 6 3 136
5 290 5 l280 -1 67 -100 c37 -55 67 -103 67 -107 1 -4 14 -26 30 -50 91 -137
167 -255 173 -270 4 -9 23 -38 42 -66 20 -27 36 -53 36 -57 0 -4 8 -17 18 -28
14 -18 28 -22 75 -23 59 0 68 5 42 26 -8 7 -15 16 -15 21 0 8 -92 155 -147
234 -16 22 -34 51 -40 65 -14 27 -35 62 -43 70 -13 12 -130 202 -130 211 0 5
-4 9 -10 9 -5 0 -10 5 -10 11 0 6 -9 23 -21 37 l-21 27 34 7 c18 4 42 9 53 12
29 6 119 48 123 58 2 4 9 8 16 8 24 0 141 124 165 175 36 75 42 103 46 191 6
139 -37 248 -133 335 -62 57 -171 112 -257 130 -69 14 -833 20 -842 6z m206
-98 c6 4 34 4 62 1 27 -4 52 -4 54 0 2 3 29 3 59 0 31 -3 61 -3 66 0 6 4 33 3
60 0 28 -4 52 -4 55 -2 11 11 270 -5 283 -18 1 -1 5 -3 10 -4 4 -1 29 -12 55
-24 142 -64 218 -183 211 -327 -4 -86 -5 -89 -31 -146 -30 -67 -100 -133 -182
-173 -39 -19 -71 -33 -71 -30 0 2 -12 -1 -27 -8 -31 -12 -677 -18 -696 -6 -13
8 -17 278 -4 278 5 0 5 5 1 12 -11 17 -11 308 0 308 5 0 5 5 0 13 -5 6 -9 32
-8 57 2 68 3 72 14 65 6 -3 10 -2 10 3 0 6 14 7 34 2 19 -4 39 -4 45 -1z"/>
<path d="M8254 5321 c-2 -2 -4 -371 -4 -820 l0 -816 610 0 610 -1 0 52 0 51
-552 1 c-304 0 -555 1 -558 1 -4 1 -5 680 -1 702 1 3 153 7 339 7 185 0 345 1
355 1 13 1 17 10 17 46 l0 45 -349 0 c-269 0 -352 3 -358 13 -11 17 -11 299 0
315 6 7 6 12 0 12 -4 0 -8 66 -8 147 l1 147 542 0 c537 0 542 1 543 21 2 30
-2 69 -8 75 -6 6 -1173 7 -1179 1z"/>
<path d="M10570 5322 c-5 -2 -10 -8 -10 -13 0 -6 -9 -29 -19 -52 -10 -23 -40
-89 -66 -147 -26 -58 -58 -129 -71 -158 -13 -28 -23 -53 -22 -55 1 -1 -5 -15
-14 -32 -18 -33 -98 -205 -98 -211 0 -2 -11 -27 -24 -56 -13 -29 -54 -120 -91
-203 -37 -82 -77 -170 -88 -195 -11 -25 -21 -47 -22 -50 -1 -3 -11 -25 -22
-50 -11 -25 -29 -65 -40 -90 -12 -25 -31 -67 -43 -95 -12 -27 -33 -72 -47
-100 -14 -27 -24 -51 -24 -52 0 -2 -6 -17 -14 -35 -7 -18 -12 -35 -10 -38 2
-3 29 -6 60 -5 l56 0 50 115 c27 63 56 127 64 142 9 15 15 30 15 33 0 3 8 26
20 51 11 26 20 50 20 55 0 5 221 9 499 9 l499 0 15 -37 c9 -21 23 -55 31 -75
9 -21 16 -41 17 -45 0 -5 8 -16 17 -27 9 -10 16 -21 16 -25 -2 -11 8 -39 55
-143 12 -27 27 -49 34 -49 6 -1 33 -2 59 -3 44 -2 47 0 46 21 -2 13 -6 23 -10
23 -4 0 -8 4 -8 9 0 5 -16 45 -36 88 -20 43 -49 106 -65 141 -16 35 -29 65
-29 68 0 3 -15 37 -34 77 -19 40 -50 108 -69 152 -19 44 -46 105 -60 135 -28
61 -44 98 -112 250 -26 58 -57 128 -70 155 -12 28 -32 71 -44 98 -11 26 -31
68 -42 95 -12 26 -30 67 -41 92 -27 62 -66 147 -89 195 -20 40 -20 41 -74 40
-30 0 -59 -1 -65 -3z m80 -157 c9 -24 21 -51 76 -173 13 -29 24 -54 24 -56 0
-2 18 -44 41 -93 22 -48 46 -101 54 -118 33 -75 55 -126 88 -200 19 -44 44
-100 55 -125 50 -108 90 -205 87 -210 -2 -4 -839 -5 -882 -1 -10 1 10 51 115
281 24 54 55 123 57 130 5 16 28 68 51 118 15 31 51 113 81 182 30 69 65 148
78 175 12 28 29 65 36 83 17 39 26 40 39 7z"/>
<path d="M11549 5303 c-1 -13 -1 -35 -2 -50 l-1 -28 299 -5 300 -5 2 -760 c0
-418 2 -763 2 -766 1 -3 24 -5 53 -5 l52 1 1 765 0 765 275 2 c151 2 280 3
285 4 6 1 16 2 24 3 13 1 18 37 12 91 -1 7 -224 10 -651 10 l-650 0 -1 -22z"/>
</g>
</svg>
