<svg xmlns="http://www.w3.org/2000/svg" width="375" viewBox="0 0 375 375" height="375" version="1.0"><path fill="#FFF" d="M-37.5 -37.5H412.5V412.5H-37.5z"/><path fill="#FEFFFE" d="M-37.5 -37.5H412.5V412.5H-37.5z"/><path fill="#ACCCB4" d="M 84.375 154.925781 C 84.375 212.441406 187.5 282.585938 187.5 282.585938 C 187.5 282.585938 290.167969 211.945312 290.625 154.925781 C 290.625 125.488281 266.65625 101.5 237.246094 101.5 C 214.640625 101.5 195.171875 115.992188 187.5 135.890625 C 179.828125 115.992188 160.359375 101.5 137.753906 101.5 C 108.34375 101.5 84.375 125.488281 84.375 154.925781"/><g><g><g><path d="M 12.75 -11.96875 L 12.75 0 L 10.703125 0 L 10.328125 -1.375 C 9.910156 -0.820312 9.375 -0.40625 8.71875 -0.125 C 8.070312 0.15625 7.414062 0.296875 6.75 0.296875 C 5.914062 0.296875 5.132812 0.132812 4.40625 -0.1875 C 3.6875 -0.507812 3.054688 -0.953125 2.515625 -1.515625 C 1.972656 -2.085938 1.539062 -2.753906 1.21875 -3.515625 C 0.90625 -4.285156 0.75 -5.101562 0.75 -5.96875 C 0.75 -6.84375 0.90625 -7.660156 1.21875 -8.421875 C 1.539062 -9.191406 1.972656 -9.859375 2.515625 -10.421875 C 3.054688 -10.992188 3.6875 -11.441406 4.40625 -11.765625 C 5.132812 -12.085938 5.914062 -12.25 6.75 -12.25 C 7.414062 -12.25 8.054688 -12.117188 8.671875 -11.859375 C 9.285156 -11.597656 9.835938 -11.195312 10.328125 -10.65625 L 10.703125 -11.96875 Z M 6.75 -1.84375 C 7.226562 -1.84375 7.6875 -1.953125 8.125 -2.171875 C 8.5625 -2.390625 8.9375 -2.6875 9.25 -3.0625 C 9.5625 -3.4375 9.8125 -3.875 10 -4.375 C 10.1875 -4.875 10.28125 -5.40625 10.28125 -5.96875 C 10.28125 -6.539062 10.1875 -7.078125 10 -7.578125 C 9.8125 -8.078125 9.5625 -8.515625 9.25 -8.890625 C 8.9375 -9.265625 8.5625 -9.554688 8.125 -9.765625 C 7.6875 -9.984375 7.226562 -10.09375 6.75 -10.09375 C 6.269531 -10.09375 5.8125 -9.984375 5.375 -9.765625 C 4.9375 -9.554688 4.5625 -9.265625 4.25 -8.890625 C 3.9375 -8.515625 3.6875 -8.078125 3.5 -7.578125 C 3.3125 -7.078125 3.21875 -6.539062 3.21875 -5.96875 C 3.21875 -5.40625 3.3125 -4.875 3.5 -4.375 C 3.6875 -3.875 3.9375 -3.4375 4.25 -3.0625 C 4.5625 -2.6875 4.9375 -2.390625 5.375 -2.171875 C 5.8125 -1.953125 6.269531 -1.84375 6.75 -1.84375 Z M 6.75 -1.84375" transform="translate(65.66 76.188)"/></g></g></g><g><g><g><path d="M 3.40625 0 L 1.46875 0 L 1.46875 -18.25 L 3.90625 -18.25 L 3.90625 -10.671875 C 4.363281 -11.171875 4.898438 -11.554688 5.515625 -11.828125 C 6.140625 -12.109375 6.859375 -12.25 7.671875 -12.25 C 8.503906 -12.25 9.273438 -12.085938 9.984375 -11.765625 C 10.691406 -11.441406 11.300781 -10.992188 11.8125 -10.421875 C 12.332031 -9.859375 12.738281 -9.191406 13.03125 -8.421875 C 13.320312 -7.660156 13.46875 -6.84375 13.46875 -5.96875 C 13.46875 -5.101562 13.320312 -4.285156 13.03125 -3.515625 C 12.738281 -2.753906 12.332031 -2.085938 11.8125 -1.515625 C 11.300781 -0.953125 10.691406 -0.507812 9.984375 -0.1875 C 9.273438 0.132812 8.503906 0.296875 7.671875 0.296875 C 6.890625 0.296875 6.1875 0.160156 5.5625 -0.109375 C 4.9375 -0.390625 4.382812 -0.769531 3.90625 -1.25 Z M 7.46875 -10.046875 C 6.988281 -10.046875 6.53125 -9.972656 6.09375 -9.828125 C 5.664062 -9.691406 5.285156 -9.460938 4.953125 -9.140625 C 4.628906 -8.816406 4.375 -8.394531 4.1875 -7.875 C 4.007812 -7.351562 3.921875 -6.71875 3.921875 -5.96875 C 3.921875 -5.269531 4.007812 -4.660156 4.1875 -4.140625 C 4.375 -3.628906 4.628906 -3.203125 4.953125 -2.859375 C 5.285156 -2.515625 5.664062 -2.257812 6.09375 -2.09375 C 6.53125 -1.925781 6.988281 -1.84375 7.46875 -1.84375 C 7.957031 -1.84375 8.414062 -1.953125 8.84375 -2.171875 C 9.28125 -2.390625 9.65625 -2.6875 9.96875 -3.0625 C 10.289062 -3.4375 10.539062 -3.875 10.71875 -4.375 C 10.90625 -4.875 11 -5.40625 11 -5.96875 C 11 -6.539062 10.90625 -7.078125 10.71875 -7.578125 C 10.539062 -8.078125 10.289062 -8.507812 9.96875 -8.875 C 9.65625 -9.238281 9.28125 -9.523438 8.84375 -9.734375 C 8.414062 -9.941406 7.957031 -10.046875 7.46875 -10.046875 Z M 7.46875 -10.046875" transform="translate(79.483 76.188)"/></g></g></g><g><g><g><path d="M 9.5 -1.078125 C 9.082031 -0.691406 8.59375 -0.375 8.03125 -0.125 C 7.476562 0.125 6.859375 0.25 6.171875 0.25 C 5.742188 0.25 5.253906 0.1875 4.703125 0.0625 C 4.148438 -0.0625 3.632812 -0.304688 3.15625 -0.671875 C 2.6875 -1.035156 2.285156 -1.539062 1.953125 -2.1875 C 1.628906 -2.832031 1.46875 -3.671875 1.46875 -4.703125 L 1.46875 -11.96875 L 3.78125 -11.96875 L 3.78125 -4.703125 C 3.78125 -4.179688 3.859375 -3.738281 4.015625 -3.375 C 4.171875 -3.019531 4.378906 -2.734375 4.640625 -2.515625 C 4.898438 -2.304688 5.195312 -2.148438 5.53125 -2.046875 C 5.863281 -1.953125 6.203125 -1.90625 6.546875 -1.90625 C 6.816406 -1.90625 7.117188 -1.953125 7.453125 -2.046875 C 7.796875 -2.148438 8.117188 -2.3125 8.421875 -2.53125 C 8.722656 -2.757812 8.976562 -3.046875 9.1875 -3.390625 C 9.394531 -3.742188 9.5 -4.171875 9.5 -4.671875 L 9.5 -11.96875 L 11.921875 -11.96875 L 11.921875 0 L 10 0 Z M 9.5 -1.078125" transform="translate(94.056 76.188)"/></g></g></g><g><g><g><path d="M 3.78125 0 L 1.34375 0 L 1.34375 -11.96875 L 3.28125 -11.96875 L 3.78125 -10.921875 C 4.175781 -11.304688 4.65625 -11.625 5.21875 -11.875 C 5.789062 -12.125 6.410156 -12.25 7.078125 -12.25 C 7.503906 -12.25 7.992188 -12.179688 8.546875 -12.046875 C 9.097656 -11.910156 9.609375 -11.660156 10.078125 -11.296875 C 10.554688 -10.929688 10.957031 -10.421875 11.28125 -9.765625 C 11.613281 -9.117188 11.78125 -8.28125 11.78125 -7.25 L 11.78125 0 L 9.46875 0 L 9.46875 -7.28125 C 9.46875 -7.789062 9.390625 -8.222656 9.234375 -8.578125 C 9.078125 -8.941406 8.867188 -9.234375 8.609375 -9.453125 C 8.347656 -9.671875 8.054688 -9.820312 7.734375 -9.90625 C 7.410156 -10 7.070312 -10.046875 6.71875 -10.046875 C 6.457031 -10.046875 6.15625 -9.992188 5.8125 -9.890625 C 5.46875 -9.796875 5.144531 -9.632812 4.84375 -9.40625 C 4.550781 -9.1875 4.300781 -8.90625 4.09375 -8.5625 C 3.882812 -8.21875 3.78125 -7.796875 3.78125 -7.296875 Z M 3.78125 0" transform="translate(107.429 76.188)"/></g></g></g><g><g><g><path d="M 12.84375 -18.25 L 12.84375 0 L 10.921875 0 L 10.421875 -1.25 C 9.941406 -0.769531 9.390625 -0.390625 8.765625 -0.109375 C 8.148438 0.160156 7.445312 0.296875 6.65625 0.296875 C 5.820312 0.296875 5.050781 0.132812 4.34375 -0.1875 C 3.644531 -0.507812 3.035156 -0.953125 2.515625 -1.515625 C 2.003906 -2.085938 1.601562 -2.753906 1.3125 -3.515625 C 1.019531 -4.285156 0.875 -5.101562 0.875 -5.96875 C 0.875 -6.84375 1.019531 -7.660156 1.3125 -8.421875 C 1.601562 -9.191406 2.003906 -9.859375 2.515625 -10.421875 C 3.035156 -10.992188 3.644531 -11.441406 4.34375 -11.765625 C 5.050781 -12.085938 5.820312 -12.25 6.65625 -12.25 C 7.488281 -12.25 8.210938 -12.109375 8.828125 -11.828125 C 9.441406 -11.554688 9.972656 -11.171875 10.421875 -10.671875 L 10.421875 -18.25 Z M 6.84375 -1.84375 C 7.34375 -1.84375 7.804688 -1.925781 8.234375 -2.09375 C 8.660156 -2.257812 9.035156 -2.515625 9.359375 -2.859375 C 9.679688 -3.203125 9.9375 -3.628906 10.125 -4.140625 C 10.3125 -4.660156 10.40625 -5.269531 10.40625 -5.96875 C 10.40625 -6.71875 10.3125 -7.351562 10.125 -7.875 C 9.9375 -8.394531 9.679688 -8.816406 9.359375 -9.140625 C 9.035156 -9.460938 8.660156 -9.691406 8.234375 -9.828125 C 7.804688 -9.972656 7.34375 -10.046875 6.84375 -10.046875 C 6.363281 -10.046875 5.90625 -9.941406 5.46875 -9.734375 C 5.039062 -9.523438 4.664062 -9.238281 4.34375 -8.875 C 4.03125 -8.507812 3.78125 -8.078125 3.59375 -7.578125 C 3.414062 -7.078125 3.328125 -6.539062 3.328125 -5.96875 C 3.328125 -5.40625 3.414062 -4.875 3.59375 -4.375 C 3.78125 -3.875 4.03125 -3.4375 4.34375 -3.0625 C 4.664062 -2.6875 5.039062 -2.390625 5.46875 -2.171875 C 5.90625 -1.953125 6.363281 -1.84375 6.84375 -1.84375 Z M 6.84375 -1.84375" transform="translate(120.776 76.188)"/></g></g></g><g><g><g><path d="M 12.75 -11.96875 L 12.75 0 L 10.703125 0 L 10.328125 -1.375 C 9.910156 -0.820312 9.375 -0.40625 8.71875 -0.125 C 8.070312 0.15625 7.414062 0.296875 6.75 0.296875 C 5.914062 0.296875 5.132812 0.132812 4.40625 -0.1875 C 3.6875 -0.507812 3.054688 -0.953125 2.515625 -1.515625 C 1.972656 -2.085938 1.539062 -2.753906 1.21875 -3.515625 C 0.90625 -4.285156 0.75 -5.101562 0.75 -5.96875 C 0.75 -6.84375 0.90625 -7.660156 1.21875 -8.421875 C 1.539062 -9.191406 1.972656 -9.859375 2.515625 -10.421875 C 3.054688 -10.992188 3.6875 -11.441406 4.40625 -11.765625 C 5.132812 -12.085938 5.914062 -12.25 6.75 -12.25 C 7.414062 -12.25 8.054688 -12.117188 8.671875 -11.859375 C 9.285156 -11.597656 9.835938 -11.195312 10.328125 -10.65625 L 10.703125 -11.96875 Z M 6.75 -1.84375 C 7.226562 -1.84375 7.6875 -1.953125 8.125 -2.171875 C 8.5625 -2.390625 8.9375 -2.6875 9.25 -3.0625 C 9.5625 -3.4375 9.8125 -3.875 10 -4.375 C 10.1875 -4.875 10.28125 -5.40625 10.28125 -5.96875 C 10.28125 -6.539062 10.1875 -7.078125 10 -7.578125 C 9.8125 -8.078125 9.5625 -8.515625 9.25 -8.890625 C 8.9375 -9.265625 8.5625 -9.554688 8.125 -9.765625 C 7.6875 -9.984375 7.226562 -10.09375 6.75 -10.09375 C 6.269531 -10.09375 5.8125 -9.984375 5.375 -9.765625 C 4.9375 -9.554688 4.5625 -9.265625 4.25 -8.890625 C 3.9375 -8.515625 3.6875 -8.078125 3.5 -7.578125 C 3.3125 -7.078125 3.21875 -6.539062 3.21875 -5.96875 C 3.21875 -5.40625 3.3125 -4.875 3.5 -4.375 C 3.6875 -3.875 3.9375 -3.4375 4.25 -3.0625 C 4.5625 -2.6875 4.9375 -2.390625 5.375 -2.171875 C 5.8125 -1.953125 6.269531 -1.84375 6.75 -1.84375 Z M 6.75 -1.84375" transform="translate(135.25 76.188)"/></g></g></g><g><g><g><path d="M 3.78125 0 L 1.34375 0 L 1.34375 -11.96875 L 3.28125 -11.96875 L 3.78125 -10.921875 C 4.175781 -11.304688 4.65625 -11.625 5.21875 -11.875 C 5.789062 -12.125 6.410156 -12.25 7.078125 -12.25 C 7.503906 -12.25 7.992188 -12.179688 8.546875 -12.046875 C 9.097656 -11.910156 9.609375 -11.660156 10.078125 -11.296875 C 10.554688 -10.929688 10.957031 -10.421875 11.28125 -9.765625 C 11.613281 -9.117188 11.78125 -8.28125 11.78125 -7.25 L 11.78125 0 L 9.46875 0 L 9.46875 -7.28125 C 9.46875 -7.789062 9.390625 -8.222656 9.234375 -8.578125 C 9.078125 -8.941406 8.867188 -9.234375 8.609375 -9.453125 C 8.347656 -9.671875 8.054688 -9.820312 7.734375 -9.90625 C 7.410156 -10 7.070312 -10.046875 6.71875 -10.046875 C 6.457031 -10.046875 6.15625 -9.992188 5.8125 -9.890625 C 5.46875 -9.796875 5.144531 -9.632812 4.84375 -9.40625 C 4.550781 -9.1875 4.300781 -8.90625 4.09375 -8.5625 C 3.882812 -8.21875 3.78125 -7.796875 3.78125 -7.296875 Z M 3.78125 0" transform="translate(149.072 76.188)"/></g></g></g><g><g><g><path d="M 6.90625 0.296875 C 6.070312 0.296875 5.289062 0.132812 4.5625 -0.1875 C 3.832031 -0.507812 3.195312 -0.953125 2.65625 -1.515625 C 2.113281 -2.085938 1.6875 -2.753906 1.375 -3.515625 C 1.0625 -4.285156 0.90625 -5.101562 0.90625 -5.96875 C 0.90625 -6.84375 1.0625 -7.660156 1.375 -8.421875 C 1.6875 -9.191406 2.113281 -9.859375 2.65625 -10.421875 C 3.195312 -10.992188 3.832031 -11.441406 4.5625 -11.765625 C 5.289062 -12.085938 6.070312 -12.25 6.90625 -12.25 C 7.863281 -12.25 8.75 -12.03125 9.5625 -11.59375 C 10.382812 -11.164062 11.070312 -10.578125 11.625 -9.828125 L 9.921875 -8.5 C 9.585938 -8.976562 9.164062 -9.351562 8.65625 -9.625 C 8.15625 -9.90625 7.613281 -10.046875 7.03125 -10.046875 C 6.53125 -10.046875 6.050781 -9.941406 5.59375 -9.734375 C 5.144531 -9.523438 4.753906 -9.238281 4.421875 -8.875 C 4.085938 -8.507812 3.820312 -8.078125 3.625 -7.578125 C 3.4375 -7.078125 3.34375 -6.539062 3.34375 -5.96875 C 3.34375 -5.40625 3.4375 -4.875 3.625 -4.375 C 3.820312 -3.875 4.085938 -3.4375 4.421875 -3.0625 C 4.753906 -2.6875 5.144531 -2.390625 5.59375 -2.171875 C 6.050781 -1.953125 6.53125 -1.84375 7.03125 -1.84375 C 7.675781 -1.84375 8.265625 -2.019531 8.796875 -2.375 C 9.328125 -2.726562 9.757812 -3.195312 10.09375 -3.78125 L 11.75 -2.328125 C 11.21875 -1.523438 10.523438 -0.882812 9.671875 -0.40625 C 8.828125 0.0625 7.90625 0.296875 6.90625 0.296875 Z M 6.90625 0.296875" transform="translate(162.42 76.188)"/></g></g></g><g><g><g><path d="M 7.078125 0.296875 C 6.210938 0.296875 5.398438 0.132812 4.640625 -0.1875 C 3.878906 -0.507812 3.210938 -0.953125 2.640625 -1.515625 C 2.078125 -2.085938 1.632812 -2.753906 1.3125 -3.515625 C 0.988281 -4.285156 0.828125 -5.101562 0.828125 -5.96875 C 0.828125 -6.84375 0.976562 -7.660156 1.28125 -8.421875 C 1.59375 -9.191406 2.007812 -9.859375 2.53125 -10.421875 C 3.0625 -10.992188 3.675781 -11.441406 4.375 -11.765625 C 5.070312 -12.085938 5.820312 -12.25 6.625 -12.25 C 7.4375 -12.25 8.1875 -12.109375 8.875 -11.828125 C 9.570312 -11.546875 10.175781 -11.101562 10.6875 -10.5 C 11.195312 -9.894531 11.59375 -9.128906 11.875 -8.203125 C 12.15625 -7.285156 12.296875 -6.1875 12.296875 -4.90625 L 3.40625 -4.90625 C 3.519531 -4.46875 3.703125 -4.0625 3.953125 -3.6875 C 4.203125 -3.3125 4.492188 -2.984375 4.828125 -2.703125 C 5.171875 -2.429688 5.554688 -2.21875 5.984375 -2.0625 C 6.410156 -1.914062 6.859375 -1.84375 7.328125 -1.84375 C 7.960938 -1.84375 8.550781 -1.957031 9.09375 -2.1875 C 9.632812 -2.425781 10.09375 -2.738281 10.46875 -3.125 L 11.96875 -1.625 C 11.382812 -1.039062 10.671875 -0.570312 9.828125 -0.21875 C 8.992188 0.125 8.078125 0.296875 7.078125 0.296875 Z M 6.625 -10.046875 C 6.238281 -10.046875 5.875 -9.96875 5.53125 -9.8125 C 5.195312 -9.664062 4.882812 -9.457031 4.59375 -9.1875 C 4.300781 -8.925781 4.050781 -8.613281 3.84375 -8.25 C 3.632812 -7.882812 3.476562 -7.484375 3.375 -7.046875 L 9.703125 -7.046875 C 9.671875 -7.453125 9.578125 -7.835938 9.421875 -8.203125 C 9.273438 -8.566406 9.066406 -8.882812 8.796875 -9.15625 C 8.535156 -9.4375 8.222656 -9.65625 7.859375 -9.8125 C 7.503906 -9.96875 7.09375 -10.046875 6.625 -10.046875 Z M 6.625 -10.046875" transform="translate(175.118 76.188)"/></g></g></g><g><g><g><path d="M 7.90625 -0.03125 C 7.21875 0.207031 6.539062 0.347656 5.875 0.390625 C 5.207031 0.441406 4.609375 0.347656 4.078125 0.109375 C 3.546875 -0.128906 3.113281 -0.550781 2.78125 -1.15625 C 2.445312 -1.769531 2.28125 -2.625 2.28125 -3.71875 L 2.28125 -9.796875 L 0.53125 -9.796875 L 0.53125 -11.46875 L 2.28125 -11.96875 L 2.28125 -15.171875 L 4.703125 -15.171875 L 4.703125 -11.96875 L 7.953125 -11.96875 L 7.953125 -9.796875 L 4.703125 -9.796875 L 4.703125 -3.34375 C 4.703125 -2.945312 4.742188 -2.628906 4.828125 -2.390625 C 4.921875 -2.160156 5.078125 -1.988281 5.296875 -1.875 C 5.515625 -1.757812 5.796875 -1.703125 6.140625 -1.703125 C 6.492188 -1.703125 6.921875 -1.734375 7.421875 -1.796875 Z M 7.90625 -0.03125" transform="translate(194.89 76.188)"/></g></g></g><g><g><g><path d="M 3.828125 0 L 1.40625 0 L 1.40625 -18.25 L 3.828125 -18.25 L 3.828125 -10.875 C 4.273438 -11.375 4.742188 -11.726562 5.234375 -11.9375 C 5.722656 -12.144531 6.296875 -12.25 6.953125 -12.25 C 7.785156 -12.25 8.53125 -12.085938 9.1875 -11.765625 C 9.84375 -11.441406 10.40625 -10.992188 10.875 -10.421875 C 11.34375 -9.859375 11.695312 -9.191406 11.9375 -8.421875 C 12.175781 -7.660156 12.296875 -6.84375 12.296875 -5.96875 L 12.296875 0 L 9.84375 0 L 9.84375 -5.96875 C 9.84375 -6.539062 9.765625 -7.078125 9.609375 -7.578125 C 9.453125 -8.078125 9.234375 -8.507812 8.953125 -8.875 C 8.679688 -9.238281 8.363281 -9.523438 8 -9.734375 C 7.644531 -9.941406 7.257812 -10.046875 6.84375 -10.046875 C 6.5 -10.046875 6.148438 -9.972656 5.796875 -9.828125 C 5.453125 -9.691406 5.132812 -9.460938 4.84375 -9.140625 C 4.550781 -8.828125 4.304688 -8.410156 4.109375 -7.890625 C 3.921875 -7.378906 3.828125 -6.757812 3.828125 -6.03125 Z M 3.828125 0" transform="translate(203.438 76.188)"/></g></g></g><g><g><g><path d="M 7.078125 0.296875 C 6.210938 0.296875 5.398438 0.132812 4.640625 -0.1875 C 3.878906 -0.507812 3.210938 -0.953125 2.640625 -1.515625 C 2.078125 -2.085938 1.632812 -2.753906 1.3125 -3.515625 C 0.988281 -4.285156 0.828125 -5.101562 0.828125 -5.96875 C 0.828125 -6.84375 0.976562 -7.660156 1.28125 -8.421875 C 1.59375 -9.191406 2.007812 -9.859375 2.53125 -10.421875 C 3.0625 -10.992188 3.675781 -11.441406 4.375 -11.765625 C 5.070312 -12.085938 5.820312 -12.25 6.625 -12.25 C 7.4375 -12.25 8.1875 -12.109375 8.875 -11.828125 C 9.570312 -11.546875 10.175781 -11.101562 10.6875 -10.5 C 11.195312 -9.894531 11.59375 -9.128906 11.875 -8.203125 C 12.15625 -7.285156 12.296875 -6.1875 12.296875 -4.90625 L 3.40625 -4.90625 C 3.519531 -4.46875 3.703125 -4.0625 3.953125 -3.6875 C 4.203125 -3.3125 4.492188 -2.984375 4.828125 -2.703125 C 5.171875 -2.429688 5.554688 -2.21875 5.984375 -2.0625 C 6.410156 -1.914062 6.859375 -1.84375 7.328125 -1.84375 C 7.960938 -1.84375 8.550781 -1.957031 9.09375 -2.1875 C 9.632812 -2.425781 10.09375 -2.738281 10.46875 -3.125 L 11.96875 -1.625 C 11.382812 -1.039062 10.671875 -0.570312 9.828125 -0.21875 C 8.992188 0.125 8.078125 0.296875 7.078125 0.296875 Z M 6.625 -10.046875 C 6.238281 -10.046875 5.875 -9.96875 5.53125 -9.8125 C 5.195312 -9.664062 4.882812 -9.457031 4.59375 -9.1875 C 4.300781 -8.925781 4.050781 -8.613281 3.84375 -8.25 C 3.632812 -7.882812 3.476562 -7.484375 3.375 -7.046875 L 9.703125 -7.046875 C 9.671875 -7.453125 9.578125 -7.835938 9.421875 -8.203125 C 9.273438 -8.566406 9.066406 -8.882812 8.796875 -9.15625 C 8.535156 -9.4375 8.222656 -9.65625 7.859375 -9.8125 C 7.503906 -9.96875 7.09375 -10.046875 6.625 -10.046875 Z M 6.625 -10.046875" transform="translate(216.986 76.188)"/></g></g></g><g><g><g><path d="M 8.625 -9.75 C 8.507812 -9.800781 8.394531 -9.851562 8.28125 -9.90625 C 8.175781 -9.9375 8.054688 -9.96875 7.921875 -10 C 7.785156 -10.03125 7.644531 -10.046875 7.5 -10.046875 C 7.019531 -10.046875 6.570312 -9.96875 6.15625 -9.8125 C 5.738281 -9.65625 5.378906 -9.441406 5.078125 -9.171875 C 4.773438 -8.910156 4.535156 -8.597656 4.359375 -8.234375 C 4.179688 -7.878906 4.09375 -7.5 4.09375 -7.09375 L 4.078125 0 L 1.65625 0 L 1.65625 -11.96875 L 3.578125 -11.96875 L 4.078125 -10.65625 C 4.410156 -11.132812 4.847656 -11.519531 5.390625 -11.8125 C 5.929688 -12.101562 6.609375 -12.25 7.421875 -12.25 C 7.953125 -12.25 8.5625 -12.175781 9.25 -12.03125 Z M 8.625 -9.75" transform="translate(230.234 76.188)"/></g></g></g><g><g><g><path d="M 12.75 -11.96875 L 12.75 0 L 10.703125 0 L 10.328125 -1.375 C 9.910156 -0.820312 9.375 -0.40625 8.71875 -0.125 C 8.070312 0.15625 7.414062 0.296875 6.75 0.296875 C 5.914062 0.296875 5.132812 0.132812 4.40625 -0.1875 C 3.6875 -0.507812 3.054688 -0.953125 2.515625 -1.515625 C 1.972656 -2.085938 1.539062 -2.753906 1.21875 -3.515625 C 0.90625 -4.285156 0.75 -5.101562 0.75 -5.96875 C 0.75 -6.84375 0.90625 -7.660156 1.21875 -8.421875 C 1.539062 -9.191406 1.972656 -9.859375 2.515625 -10.421875 C 3.054688 -10.992188 3.6875 -11.441406 4.40625 -11.765625 C 5.132812 -12.085938 5.914062 -12.25 6.75 -12.25 C 7.414062 -12.25 8.054688 -12.117188 8.671875 -11.859375 C 9.285156 -11.597656 9.835938 -11.195312 10.328125 -10.65625 L 10.703125 -11.96875 Z M 6.75 -1.84375 C 7.226562 -1.84375 7.6875 -1.953125 8.125 -2.171875 C 8.5625 -2.390625 8.9375 -2.6875 9.25 -3.0625 C 9.5625 -3.4375 9.8125 -3.875 10 -4.375 C 10.1875 -4.875 10.28125 -5.40625 10.28125 -5.96875 C 10.28125 -6.539062 10.1875 -7.078125 10 -7.578125 C 9.8125 -8.078125 9.5625 -8.515625 9.25 -8.890625 C 8.9375 -9.265625 8.5625 -9.554688 8.125 -9.765625 C 7.6875 -9.984375 7.226562 -10.09375 6.75 -10.09375 C 6.269531 -10.09375 5.8125 -9.984375 5.375 -9.765625 C 4.9375 -9.554688 4.5625 -9.265625 4.25 -8.890625 C 3.9375 -8.515625 3.6875 -8.078125 3.5 -7.578125 C 3.3125 -7.078125 3.21875 -6.539062 3.21875 -5.96875 C 3.21875 -5.40625 3.3125 -4.875 3.5 -4.375 C 3.6875 -3.875 3.9375 -3.4375 4.25 -3.0625 C 4.5625 -2.6875 4.9375 -2.390625 5.375 -2.171875 C 5.8125 -1.953125 6.269531 -1.84375 6.75 -1.84375 Z M 6.75 -1.84375" transform="translate(239.683 76.188)"/></g></g></g><g><g><g><path d="M 1.40625 4.953125 L 1.40625 -11.96875 L 3.328125 -11.96875 L 3.828125 -10.71875 C 4.304688 -11.207031 4.859375 -11.582031 5.484375 -11.84375 C 6.109375 -12.113281 6.8125 -12.25 7.59375 -12.25 C 8.425781 -12.25 9.195312 -12.085938 9.90625 -11.765625 C 10.613281 -11.441406 11.226562 -10.992188 11.75 -10.421875 C 12.269531 -9.859375 12.675781 -9.191406 12.96875 -8.421875 C 13.257812 -7.660156 13.40625 -6.84375 13.40625 -5.96875 C 13.40625 -5.101562 13.257812 -4.285156 12.96875 -3.515625 C 12.675781 -2.753906 12.269531 -2.085938 11.75 -1.515625 C 11.226562 -0.953125 10.613281 -0.507812 9.90625 -0.1875 C 9.195312 0.132812 8.425781 0.296875 7.59375 0.296875 C 6.78125 0.296875 6.066406 0.160156 5.453125 -0.109375 C 4.835938 -0.390625 4.296875 -0.785156 3.828125 -1.296875 L 3.828125 4.953125 Z M 7.40625 -10.046875 C 6.914062 -10.046875 6.453125 -9.96875 6.015625 -9.8125 C 5.585938 -9.65625 5.210938 -9.40625 4.890625 -9.0625 C 4.566406 -8.71875 4.3125 -8.289062 4.125 -7.78125 C 3.9375 -7.28125 3.84375 -6.675781 3.84375 -5.96875 C 3.84375 -5.21875 3.9375 -4.582031 4.125 -4.0625 C 4.3125 -3.539062 4.566406 -3.113281 4.890625 -2.78125 C 5.210938 -2.457031 5.585938 -2.21875 6.015625 -2.0625 C 6.453125 -1.914062 6.914062 -1.84375 7.40625 -1.84375 C 7.882812 -1.84375 8.335938 -1.953125 8.765625 -2.171875 C 9.203125 -2.390625 9.578125 -2.6875 9.890625 -3.0625 C 10.210938 -3.4375 10.460938 -3.875 10.640625 -4.375 C 10.828125 -4.875 10.921875 -5.40625 10.921875 -5.96875 C 10.921875 -6.539062 10.828125 -7.078125 10.640625 -7.578125 C 10.460938 -8.078125 10.210938 -8.507812 9.890625 -8.875 C 9.578125 -9.238281 9.203125 -9.523438 8.765625 -9.734375 C 8.335938 -9.941406 7.882812 -10.046875 7.40625 -10.046875 Z M 7.40625 -10.046875" transform="translate(253.505 76.188)"/></g></g></g><g><g><g><path d="M 3.921875 0 L 1.5 0 L 1.5 -11.96875 L 3.90625 -11.96875 Z M 2.703125 -14.578125 C 2.265625 -14.578125 1.894531 -14.726562 1.59375 -15.03125 C 1.300781 -15.34375 1.15625 -15.71875 1.15625 -16.15625 C 1.15625 -16.582031 1.300781 -16.945312 1.59375 -17.25 C 1.894531 -17.550781 2.265625 -17.703125 2.703125 -17.703125 C 3.128906 -17.703125 3.492188 -17.550781 3.796875 -17.25 C 4.097656 -16.945312 4.25 -16.582031 4.25 -16.15625 C 4.25 -15.71875 4.097656 -15.34375 3.796875 -15.03125 C 3.492188 -14.726562 3.128906 -14.578125 2.703125 -14.578125 Z M 2.703125 -14.578125" transform="translate(267.603 76.188)"/></g></g></g><g><g><g><path d="M 7.078125 0.296875 C 6.210938 0.296875 5.398438 0.132812 4.640625 -0.1875 C 3.878906 -0.507812 3.210938 -0.953125 2.640625 -1.515625 C 2.078125 -2.085938 1.632812 -2.753906 1.3125 -3.515625 C 0.988281 -4.285156 0.828125 -5.101562 0.828125 -5.96875 C 0.828125 -6.84375 0.976562 -7.660156 1.28125 -8.421875 C 1.59375 -9.191406 2.007812 -9.859375 2.53125 -10.421875 C 3.0625 -10.992188 3.675781 -11.441406 4.375 -11.765625 C 5.070312 -12.085938 5.820312 -12.25 6.625 -12.25 C 7.4375 -12.25 8.1875 -12.109375 8.875 -11.828125 C 9.570312 -11.546875 10.175781 -11.101562 10.6875 -10.5 C 11.195312 -9.894531 11.59375 -9.128906 11.875 -8.203125 C 12.15625 -7.285156 12.296875 -6.1875 12.296875 -4.90625 L 3.40625 -4.90625 C 3.519531 -4.46875 3.703125 -4.0625 3.953125 -3.6875 C 4.203125 -3.3125 4.492188 -2.984375 4.828125 -2.703125 C 5.171875 -2.429688 5.554688 -2.21875 5.984375 -2.0625 C 6.410156 -1.914062 6.859375 -1.84375 7.328125 -1.84375 C 7.960938 -1.84375 8.550781 -1.957031 9.09375 -2.1875 C 9.632812 -2.425781 10.09375 -2.738281 10.46875 -3.125 L 11.96875 -1.625 C 11.382812 -1.039062 10.671875 -0.570312 9.828125 -0.21875 C 8.992188 0.125 8.078125 0.296875 7.078125 0.296875 Z M 6.625 -10.046875 C 6.238281 -10.046875 5.875 -9.96875 5.53125 -9.8125 C 5.195312 -9.664062 4.882812 -9.457031 4.59375 -9.1875 C 4.300781 -8.925781 4.050781 -8.613281 3.84375 -8.25 C 3.632812 -7.882812 3.476562 -7.484375 3.375 -7.046875 L 9.703125 -7.046875 C 9.671875 -7.453125 9.578125 -7.835938 9.421875 -8.203125 C 9.273438 -8.566406 9.066406 -8.882812 8.796875 -9.15625 C 8.535156 -9.4375 8.222656 -9.65625 7.859375 -9.8125 C 7.503906 -9.96875 7.09375 -10.046875 6.625 -10.046875 Z M 6.625 -10.046875" transform="translate(272.852 76.188)"/></g></g></g><g><g><g><path d="M 6.96875 -2.5 C 7.125 -2.632812 7.257812 -2.785156 7.375 -2.953125 C 7.488281 -3.117188 7.546875 -3.3125 7.546875 -3.53125 C 7.546875 -3.789062 7.445312 -4.007812 7.25 -4.1875 C 7.0625 -4.375 6.832031 -4.53125 6.5625 -4.65625 C 6.289062 -4.78125 6.003906 -4.875 5.703125 -4.9375 C 5.398438 -5.007812 5.148438 -5.070312 4.953125 -5.125 C 4.398438 -5.257812 3.878906 -5.421875 3.390625 -5.609375 C 2.910156 -5.804688 2.488281 -6.039062 2.125 -6.3125 C 1.769531 -6.582031 1.488281 -6.90625 1.28125 -7.28125 C 1.070312 -7.65625 0.96875 -8.101562 0.96875 -8.625 C 0.96875 -9.101562 1.082031 -9.554688 1.3125 -9.984375 C 1.550781 -10.410156 1.863281 -10.785156 2.25 -11.109375 C 2.644531 -11.429688 3.101562 -11.6875 3.625 -11.875 C 4.15625 -12.070312 4.710938 -12.171875 5.296875 -12.171875 C 5.816406 -12.171875 6.304688 -12.09375 6.765625 -11.9375 C 7.234375 -11.789062 7.65625 -11.585938 8.03125 -11.328125 C 8.40625 -11.078125 8.722656 -10.765625 8.984375 -10.390625 C 9.242188 -10.023438 9.414062 -9.617188 9.5 -9.171875 L 7.328125 -8.65625 C 7.222656 -9.050781 7.003906 -9.378906 6.671875 -9.640625 C 6.335938 -9.910156 5.878906 -10.046875 5.296875 -10.046875 C 5.097656 -10.046875 4.890625 -10.015625 4.671875 -9.953125 C 4.453125 -9.898438 4.25 -9.816406 4.0625 -9.703125 C 3.882812 -9.585938 3.734375 -9.445312 3.609375 -9.28125 C 3.484375 -9.113281 3.421875 -8.921875 3.421875 -8.703125 C 3.421875 -8.460938 3.488281 -8.257812 3.625 -8.09375 C 3.769531 -7.925781 3.941406 -7.789062 4.140625 -7.6875 C 4.347656 -7.582031 4.566406 -7.492188 4.796875 -7.421875 C 5.035156 -7.359375 5.253906 -7.300781 5.453125 -7.25 C 6.335938 -7.03125 7.070312 -6.796875 7.65625 -6.546875 C 8.238281 -6.296875 8.703125 -6.019531 9.046875 -5.71875 C 9.398438 -5.425781 9.644531 -5.097656 9.78125 -4.734375 C 9.925781 -4.378906 10 -3.976562 10 -3.53125 C 10 -2.988281 9.878906 -2.484375 9.640625 -2.015625 C 9.398438 -1.554688 9.066406 -1.15625 8.640625 -0.8125 C 8.210938 -0.46875 7.703125 -0.195312 7.109375 0 C 6.515625 0.1875 5.878906 0.28125 5.203125 0.28125 C 4.171875 0.28125 3.25 0.0234375 2.4375 -0.484375 C 1.625 -0.992188 1.078125 -1.675781 0.796875 -2.53125 L 2.84375 -3.453125 C 3.113281 -2.867188 3.457031 -2.472656 3.875 -2.265625 C 4.289062 -2.054688 4.765625 -1.953125 5.296875 -1.953125 C 5.960938 -1.953125 6.519531 -2.132812 6.96875 -2.5 Z M 6.96875 -2.5" transform="translate(286.1 76.188)"/></g></g></g><g><g><g><path d="M 1.078125 -1.296875 C 1.078125 -1.734375 1.222656 -2.101562 1.515625 -2.40625 C 1.816406 -2.71875 2.1875 -2.875 2.625 -2.875 C 3.0625 -2.875 3.425781 -2.71875 3.71875 -2.40625 C 4.019531 -2.101562 4.171875 -1.734375 4.171875 -1.296875 C 4.171875 -0.867188 4.019531 -0.503906 3.71875 -0.203125 C 3.425781 0.0976562 3.0625 0.25 2.625 0.25 C 2.1875 0.25 1.816406 0.0976562 1.515625 -0.203125 C 1.222656 -0.503906 1.078125 -0.867188 1.078125 -1.296875 Z M 1.078125 -1.296875" transform="translate(296.849 76.188)"/></g></g></g><g fill="#071400"><g><g><path d="M 6.296875 -9.578125 C 5.378906 -9.578125 4.671875 -9.234375 4.171875 -8.546875 C 3.671875 -7.859375 3.421875 -6.90625 3.421875 -5.6875 C 3.421875 -3.132812 4.378906 -1.859375 6.296875 -1.859375 C 7.097656 -1.859375 8.066406 -2.0625 9.203125 -2.46875 L 9.203125 -0.4375 C 8.265625 -0.0390625 7.21875 0.15625 6.0625 0.15625 C 4.40625 0.15625 3.132812 -0.347656 2.25 -1.359375 C 1.375 -2.367188 0.9375 -3.816406 0.9375 -5.703125 C 0.9375 -6.890625 1.148438 -7.925781 1.578125 -8.8125 C 2.015625 -9.707031 2.632812 -10.394531 3.4375 -10.875 C 4.25 -11.351562 5.203125 -11.59375 6.296875 -11.59375 C 7.398438 -11.59375 8.515625 -11.320312 9.640625 -10.78125 L 8.859375 -8.8125 C 8.429688 -9.019531 8 -9.195312 7.5625 -9.34375 C 7.132812 -9.5 6.710938 -9.578125 6.296875 -9.578125 Z M 6.296875 -9.578125" transform="translate(84.375 322.559)"/></g></g></g><g fill="#071400"><g><g><path d="M 3.15625 -4.390625 C 3.15625 -3.523438 3.296875 -2.867188 3.578125 -2.421875 C 3.859375 -1.984375 4.320312 -1.765625 4.96875 -1.765625 C 5.601562 -1.765625 6.054688 -1.984375 6.328125 -2.421875 C 6.609375 -2.859375 6.75 -3.515625 6.75 -4.390625 C 6.75 -5.253906 6.609375 -5.898438 6.328125 -6.328125 C 6.046875 -6.765625 5.585938 -6.984375 4.953125 -6.984375 C 4.316406 -6.984375 3.859375 -6.765625 3.578125 -6.328125 C 3.296875 -5.898438 3.15625 -5.253906 3.15625 -4.390625 Z M 9.1875 -4.390625 C 9.1875 -2.960938 8.8125 -1.847656 8.0625 -1.046875 C 7.3125 -0.242188 6.269531 0.15625 4.9375 0.15625 C 4.09375 0.15625 3.347656 -0.0234375 2.703125 -0.390625 C 2.066406 -0.765625 1.578125 -1.296875 1.234375 -1.984375 C 0.890625 -2.671875 0.71875 -3.472656 0.71875 -4.390625 C 0.71875 -5.816406 1.085938 -6.925781 1.828125 -7.71875 C 2.578125 -8.507812 3.628906 -8.90625 4.984375 -8.90625 C 5.816406 -8.90625 6.550781 -8.722656 7.1875 -8.359375 C 7.832031 -7.992188 8.328125 -7.46875 8.671875 -6.78125 C 9.015625 -6.101562 9.1875 -5.304688 9.1875 -4.390625 Z M 9.1875 -4.390625" transform="translate(94.568 322.559)"/></g></g></g><g fill="#071400"><g><g><path d="M 6.796875 0 L 6.34375 -1.1875 L 6.28125 -1.1875 C 5.875 -0.6875 5.457031 -0.335938 5.03125 -0.140625 C 4.613281 0.0546875 4.0625 0.15625 3.375 0.15625 C 2.539062 0.15625 1.878906 -0.0820312 1.390625 -0.5625 C 0.910156 -1.039062 0.671875 -1.722656 0.671875 -2.609375 C 0.671875 -3.535156 0.992188 -4.21875 1.640625 -4.65625 C 2.296875 -5.101562 3.273438 -5.347656 4.578125 -5.390625 L 6.09375 -5.4375 L 6.09375 -5.828125 C 6.09375 -6.710938 5.640625 -7.15625 4.734375 -7.15625 C 4.035156 -7.15625 3.21875 -6.941406 2.28125 -6.515625 L 1.484375 -8.125 C 2.492188 -8.65625 3.609375 -8.921875 4.828125 -8.921875 C 6.003906 -8.921875 6.90625 -8.664062 7.53125 -8.15625 C 8.15625 -7.644531 8.46875 -6.867188 8.46875 -5.828125 L 8.46875 0 Z M 6.09375 -4.046875 L 5.171875 -4.015625 C 4.484375 -3.992188 3.96875 -3.867188 3.625 -3.640625 C 3.289062 -3.410156 3.125 -3.0625 3.125 -2.59375 C 3.125 -1.925781 3.507812 -1.59375 4.28125 -1.59375 C 4.832031 -1.59375 5.269531 -1.75 5.59375 -2.0625 C 5.925781 -2.382812 6.09375 -2.804688 6.09375 -3.328125 Z M 6.09375 -4.046875" transform="translate(104.472 322.559)"/></g></g></g><g fill="#071400"><g><g><path d="M 4.796875 0.15625 C 2.078125 0.15625 0.71875 -1.335938 0.71875 -4.328125 C 0.71875 -5.804688 1.085938 -6.9375 1.828125 -7.71875 C 2.566406 -8.507812 3.628906 -8.90625 5.015625 -8.90625 C 6.023438 -8.90625 6.929688 -8.707031 7.734375 -8.3125 L 7.03125 -6.46875 C 6.65625 -6.613281 6.304688 -6.734375 5.984375 -6.828125 C 5.660156 -6.929688 5.335938 -6.984375 5.015625 -6.984375 C 3.773438 -6.984375 3.15625 -6.101562 3.15625 -4.34375 C 3.15625 -2.632812 3.773438 -1.78125 5.015625 -1.78125 C 5.472656 -1.78125 5.894531 -1.835938 6.28125 -1.953125 C 6.675781 -2.078125 7.066406 -2.269531 7.453125 -2.53125 L 7.453125 -0.5 C 7.066406 -0.25 6.675781 -0.078125 6.28125 0.015625 C 5.894531 0.109375 5.398438 0.15625 4.796875 0.15625 Z M 4.796875 0.15625" transform="translate(114.133 322.559)"/></g></g></g><g fill="#071400"><g><g><path d="M 9.3125 0 L 6.9375 0 L 6.9375 -5.109375 C 6.9375 -6.367188 6.46875 -7 5.53125 -7 C 4.863281 -7 4.378906 -6.769531 4.078125 -6.3125 C 3.785156 -5.863281 3.640625 -5.128906 3.640625 -4.109375 L 3.640625 0 L 1.25 0 L 1.25 -12.15625 L 3.640625 -12.15625 L 3.640625 -9.6875 C 3.640625 -9.488281 3.617188 -9.035156 3.578125 -8.328125 L 3.53125 -7.625 L 3.65625 -7.625 C 4.1875 -8.476562 5.03125 -8.90625 6.1875 -8.90625 C 7.207031 -8.90625 7.984375 -8.628906 8.515625 -8.078125 C 9.046875 -7.523438 9.3125 -6.734375 9.3125 -5.703125 Z M 9.3125 0" transform="translate(122.358 322.559)"/></g></g></g><g fill="#071400"><g><g><path d="M 1.15625 -11 C 1.15625 -11.769531 1.585938 -12.15625 2.453125 -12.15625 C 3.316406 -12.15625 3.75 -11.769531 3.75 -11 C 3.75 -10.625 3.640625 -10.332031 3.421875 -10.125 C 3.203125 -9.925781 2.878906 -9.828125 2.453125 -9.828125 C 1.585938 -9.828125 1.15625 -10.21875 1.15625 -11 Z M 3.640625 0 L 1.25 0 L 1.25 -8.734375 L 3.640625 -8.734375 Z M 3.640625 0" transform="translate(132.871 322.559)"/></g></g></g><g fill="#071400"><g><g><path d="M 9.3125 0 L 6.9375 0 L 6.9375 -5.109375 C 6.9375 -5.734375 6.820312 -6.203125 6.59375 -6.515625 C 6.375 -6.835938 6.019531 -7 5.53125 -7 C 4.863281 -7 4.378906 -6.773438 4.078125 -6.328125 C 3.785156 -5.878906 3.640625 -5.140625 3.640625 -4.109375 L 3.640625 0 L 1.25 0 L 1.25 -8.734375 L 3.078125 -8.734375 L 3.390625 -7.625 L 3.53125 -7.625 C 3.789062 -8.039062 4.15625 -8.359375 4.625 -8.578125 C 5.09375 -8.796875 5.625 -8.90625 6.21875 -8.90625 C 7.226562 -8.90625 7.992188 -8.628906 8.515625 -8.078125 C 9.046875 -7.523438 9.3125 -6.734375 9.3125 -5.703125 Z M 9.3125 0" transform="translate(137.753 322.559)"/></g></g></g><g fill="#071400"><g><g><path d="M 8.859375 -8.734375 L 8.859375 -7.53125 L 7.484375 -7.171875 C 7.734375 -6.785156 7.859375 -6.347656 7.859375 -5.859375 C 7.859375 -4.921875 7.53125 -4.191406 6.875 -3.671875 C 6.226562 -3.148438 5.320312 -2.890625 4.15625 -2.890625 L 3.734375 -2.90625 L 3.375 -2.953125 C 3.132812 -2.765625 3.015625 -2.554688 3.015625 -2.328125 C 3.015625 -1.984375 3.453125 -1.8125 4.328125 -1.8125 L 5.8125 -1.8125 C 6.769531 -1.8125 7.5 -1.601562 8 -1.1875 C 8.5 -0.78125 8.75 -0.175781 8.75 0.625 C 8.75 1.644531 8.320312 2.4375 7.46875 3 C 6.625 3.5625 5.40625 3.84375 3.8125 3.84375 C 2.59375 3.84375 1.660156 3.628906 1.015625 3.203125 C 0.367188 2.785156 0.046875 2.191406 0.046875 1.421875 C 0.046875 0.898438 0.207031 0.457031 0.53125 0.09375 C 0.863281 -0.257812 1.347656 -0.507812 1.984375 -0.65625 C 1.742188 -0.757812 1.53125 -0.929688 1.34375 -1.171875 C 1.164062 -1.410156 1.078125 -1.660156 1.078125 -1.921875 C 1.078125 -2.253906 1.171875 -2.53125 1.359375 -2.75 C 1.554688 -2.976562 1.835938 -3.195312 2.203125 -3.40625 C 1.742188 -3.601562 1.378906 -3.921875 1.109375 -4.359375 C 0.835938 -4.796875 0.703125 -5.3125 0.703125 -5.90625 C 0.703125 -6.863281 1.007812 -7.601562 1.625 -8.125 C 2.25 -8.644531 3.140625 -8.90625 4.296875 -8.90625 C 4.535156 -8.90625 4.820312 -8.878906 5.15625 -8.828125 C 5.5 -8.785156 5.71875 -8.753906 5.8125 -8.734375 Z M 2.109375 1.234375 C 2.109375 1.566406 2.265625 1.828125 2.578125 2.015625 C 2.898438 2.203125 3.34375 2.296875 3.90625 2.296875 C 4.757812 2.296875 5.425781 2.175781 5.90625 1.9375 C 6.394531 1.707031 6.640625 1.390625 6.640625 0.984375 C 6.640625 0.648438 6.492188 0.421875 6.203125 0.296875 C 5.921875 0.171875 5.484375 0.109375 4.890625 0.109375 L 3.65625 0.109375 C 3.21875 0.109375 2.847656 0.210938 2.546875 0.421875 C 2.253906 0.628906 2.109375 0.898438 2.109375 1.234375 Z M 2.984375 -5.875 C 2.984375 -5.40625 3.085938 -5.03125 3.296875 -4.75 C 3.515625 -4.476562 3.847656 -4.34375 4.296875 -4.34375 C 4.742188 -4.34375 5.070312 -4.476562 5.28125 -4.75 C 5.488281 -5.03125 5.59375 -5.40625 5.59375 -5.875 C 5.59375 -6.925781 5.160156 -7.453125 4.296875 -7.453125 C 3.421875 -7.453125 2.984375 -6.925781 2.984375 -5.875 Z M 2.984375 -5.875" transform="translate(148.266 322.559)"/></g></g></g><g fill="#071400"><g><g><path d="M 0.484375 -3.3125 L 0.484375 -5.265625 L 4.671875 -5.265625 L 4.671875 -3.3125 Z M 0.484375 -3.3125" transform="translate(157.303 322.559)"/></g></g></g><g fill="#071400"><g><g><path d="M 12.5625 0 L 9.8125 0 L 8.265625 -6 C 8.203125 -6.21875 8.101562 -6.660156 7.96875 -7.328125 C 7.832031 -7.992188 7.753906 -8.441406 7.734375 -8.671875 C 7.703125 -8.390625 7.625 -7.9375 7.5 -7.3125 C 7.375 -6.695312 7.273438 -6.253906 7.203125 -5.984375 L 5.671875 0 L 2.921875 0 L 0 -11.421875 L 2.390625 -11.421875 L 3.84375 -5.1875 C 4.101562 -4.039062 4.289062 -3.046875 4.40625 -2.203125 C 4.4375 -2.492188 4.503906 -2.953125 4.609375 -3.578125 C 4.722656 -4.203125 4.832031 -4.6875 4.9375 -5.03125 L 6.59375 -11.421875 L 8.890625 -11.421875 L 10.546875 -5.03125 C 10.617188 -4.738281 10.707031 -4.296875 10.8125 -3.703125 C 10.925781 -3.117188 11.015625 -2.617188 11.078125 -2.203125 C 11.128906 -2.609375 11.210938 -3.113281 11.328125 -3.71875 C 11.441406 -4.320312 11.546875 -4.8125 11.640625 -5.1875 L 13.09375 -11.421875 L 15.46875 -11.421875 Z M 12.5625 0" transform="translate(162.45 322.559)"/></g></g></g><g fill="#071400"><g><g><path d="M 4.875 -7.203125 C 4.363281 -7.203125 3.960938 -7.039062 3.671875 -6.71875 C 3.390625 -6.40625 3.226562 -5.953125 3.1875 -5.359375 L 6.53125 -5.359375 C 6.519531 -5.953125 6.363281 -6.40625 6.0625 -6.71875 C 5.769531 -7.039062 5.375 -7.203125 4.875 -7.203125 Z M 5.203125 0.15625 C 3.796875 0.15625 2.695312 -0.226562 1.90625 -1 C 1.113281 -1.78125 0.71875 -2.882812 0.71875 -4.3125 C 0.71875 -5.769531 1.082031 -6.898438 1.8125 -7.703125 C 2.550781 -8.503906 3.566406 -8.90625 4.859375 -8.90625 C 6.085938 -8.90625 7.046875 -8.550781 7.734375 -7.84375 C 8.421875 -7.144531 8.765625 -6.175781 8.765625 -4.9375 L 8.765625 -3.78125 L 3.140625 -3.78125 C 3.160156 -3.101562 3.359375 -2.570312 3.734375 -2.1875 C 4.109375 -1.8125 4.632812 -1.625 5.3125 -1.625 C 5.84375 -1.625 6.34375 -1.675781 6.8125 -1.78125 C 7.28125 -1.894531 7.769531 -2.070312 8.28125 -2.3125 L 8.28125 -0.46875 C 7.863281 -0.257812 7.414062 -0.101562 6.9375 0 C 6.46875 0.101562 5.890625 0.15625 5.203125 0.15625 Z M 5.203125 0.15625" transform="translate(177.915 322.559)"/></g></g></g><g fill="#071400"><g><g><path d="M 3.640625 0 L 1.25 0 L 1.25 -12.15625 L 3.640625 -12.15625 Z M 3.640625 0" transform="translate(187.366 322.559)"/></g></g></g><g fill="#071400"><g><g><path d="M 3.640625 0 L 1.25 0 L 1.25 -12.15625 L 3.640625 -12.15625 Z M 3.640625 0" transform="translate(192.247 322.559)"/></g></g></g><g fill="#071400"><g><g><path d="M 9.3125 0 L 6.9375 0 L 6.9375 -5.109375 C 6.9375 -5.734375 6.820312 -6.203125 6.59375 -6.515625 C 6.375 -6.835938 6.019531 -7 5.53125 -7 C 4.863281 -7 4.378906 -6.773438 4.078125 -6.328125 C 3.785156 -5.878906 3.640625 -5.140625 3.640625 -4.109375 L 3.640625 0 L 1.25 0 L 1.25 -8.734375 L 3.078125 -8.734375 L 3.390625 -7.625 L 3.53125 -7.625 C 3.789062 -8.039062 4.15625 -8.359375 4.625 -8.578125 C 5.09375 -8.796875 5.625 -8.90625 6.21875 -8.90625 C 7.226562 -8.90625 7.992188 -8.628906 8.515625 -8.078125 C 9.046875 -7.523438 9.3125 -6.734375 9.3125 -5.703125 Z M 9.3125 0" transform="translate(197.129 322.559)"/></g></g></g><g fill="#071400"><g><g><path d="M 4.875 -7.203125 C 4.363281 -7.203125 3.960938 -7.039062 3.671875 -6.71875 C 3.390625 -6.40625 3.226562 -5.953125 3.1875 -5.359375 L 6.53125 -5.359375 C 6.519531 -5.953125 6.363281 -6.40625 6.0625 -6.71875 C 5.769531 -7.039062 5.375 -7.203125 4.875 -7.203125 Z M 5.203125 0.15625 C 3.796875 0.15625 2.695312 -0.226562 1.90625 -1 C 1.113281 -1.78125 0.71875 -2.882812 0.71875 -4.3125 C 0.71875 -5.769531 1.082031 -6.898438 1.8125 -7.703125 C 2.550781 -8.503906 3.566406 -8.90625 4.859375 -8.90625 C 6.085938 -8.90625 7.046875 -8.550781 7.734375 -7.84375 C 8.421875 -7.144531 8.765625 -6.175781 8.765625 -4.9375 L 8.765625 -3.78125 L 3.140625 -3.78125 C 3.160156 -3.101562 3.359375 -2.570312 3.734375 -2.1875 C 4.109375 -1.8125 4.632812 -1.625 5.3125 -1.625 C 5.84375 -1.625 6.34375 -1.675781 6.8125 -1.78125 C 7.28125 -1.894531 7.769531 -2.070312 8.28125 -2.3125 L 8.28125 -0.46875 C 7.863281 -0.257812 7.414062 -0.101562 6.9375 0 C 6.46875 0.101562 5.890625 0.15625 5.203125 0.15625 Z M 5.203125 0.15625" transform="translate(207.642 322.559)"/></g></g></g><g fill="#071400"><g><g><path d="M 7.34375 -2.59375 C 7.34375 -1.695312 7.03125 -1.015625 6.40625 -0.546875 C 5.789062 -0.078125 4.863281 0.15625 3.625 0.15625 C 2.988281 0.15625 2.445312 0.109375 2 0.015625 C 1.550781 -0.0664062 1.128906 -0.191406 0.734375 -0.359375 L 0.734375 -2.328125 C 1.179688 -2.117188 1.679688 -1.941406 2.234375 -1.796875 C 2.785156 -1.660156 3.273438 -1.59375 3.703125 -1.59375 C 4.566406 -1.59375 5 -1.84375 5 -2.34375 C 5 -2.53125 4.941406 -2.679688 4.828125 -2.796875 C 4.710938 -2.910156 4.515625 -3.039062 4.234375 -3.1875 C 3.953125 -3.34375 3.578125 -3.519531 3.109375 -3.71875 C 2.429688 -4 1.9375 -4.257812 1.625 -4.5 C 1.3125 -4.738281 1.082031 -5.007812 0.9375 -5.3125 C 0.789062 -5.625 0.71875 -6.007812 0.71875 -6.46875 C 0.71875 -7.238281 1.019531 -7.835938 1.625 -8.265625 C 2.226562 -8.691406 3.082031 -8.90625 4.1875 -8.90625 C 5.238281 -8.90625 6.257812 -8.675781 7.25 -8.21875 L 6.53125 -6.5 C 6.09375 -6.6875 5.679688 -6.835938 5.296875 -6.953125 C 4.921875 -7.078125 4.535156 -7.140625 4.140625 -7.140625 C 3.441406 -7.140625 3.09375 -6.945312 3.09375 -6.5625 C 3.09375 -6.351562 3.203125 -6.171875 3.421875 -6.015625 C 3.648438 -5.859375 4.148438 -5.625 4.921875 -5.3125 C 5.597656 -5.039062 6.09375 -4.785156 6.40625 -4.546875 C 6.726562 -4.304688 6.960938 -4.03125 7.109375 -3.71875 C 7.265625 -3.40625 7.34375 -3.03125 7.34375 -2.59375 Z M 7.34375 -2.59375" transform="translate(217.093 322.559)"/></g></g></g><g fill="#071400"><g><g><path d="M 7.34375 -2.59375 C 7.34375 -1.695312 7.03125 -1.015625 6.40625 -0.546875 C 5.789062 -0.078125 4.863281 0.15625 3.625 0.15625 C 2.988281 0.15625 2.445312 0.109375 2 0.015625 C 1.550781 -0.0664062 1.128906 -0.191406 0.734375 -0.359375 L 0.734375 -2.328125 C 1.179688 -2.117188 1.679688 -1.941406 2.234375 -1.796875 C 2.785156 -1.660156 3.273438 -1.59375 3.703125 -1.59375 C 4.566406 -1.59375 5 -1.84375 5 -2.34375 C 5 -2.53125 4.941406 -2.679688 4.828125 -2.796875 C 4.710938 -2.910156 4.515625 -3.039062 4.234375 -3.1875 C 3.953125 -3.34375 3.578125 -3.519531 3.109375 -3.71875 C 2.429688 -4 1.9375 -4.257812 1.625 -4.5 C 1.3125 -4.738281 1.082031 -5.007812 0.9375 -5.3125 C 0.789062 -5.625 0.71875 -6.007812 0.71875 -6.46875 C 0.71875 -7.238281 1.019531 -7.835938 1.625 -8.265625 C 2.226562 -8.691406 3.082031 -8.90625 4.1875 -8.90625 C 5.238281 -8.90625 6.257812 -8.675781 7.25 -8.21875 L 6.53125 -6.5 C 6.09375 -6.6875 5.679688 -6.835938 5.296875 -6.953125 C 4.921875 -7.078125 4.535156 -7.140625 4.140625 -7.140625 C 3.441406 -7.140625 3.09375 -6.945312 3.09375 -6.5625 C 3.09375 -6.351562 3.203125 -6.171875 3.421875 -6.015625 C 3.648438 -5.859375 4.148438 -5.625 4.921875 -5.3125 C 5.597656 -5.039062 6.09375 -4.785156 6.40625 -4.546875 C 6.726562 -4.304688 6.960938 -4.03125 7.109375 -3.71875 C 7.265625 -3.40625 7.34375 -3.03125 7.34375 -2.59375 Z M 7.34375 -2.59375" transform="translate(225.044 322.559)"/></g></g></g><g fill="#071400"><g><g><path d="M 0.484375 -3.3125 L 0.484375 -5.265625 L 4.671875 -5.265625 L 4.671875 -3.3125 Z M 0.484375 -3.3125" transform="translate(232.995 322.559)"/></g></g></g><g fill="#071400"><g><g><path d="M 5 -6.71875 L 7.375 -11.421875 L 9.984375 -11.421875 L 6.203125 -4.453125 L 6.203125 0 L 3.796875 0 L 3.796875 -4.375 L 0 -11.421875 L 2.625 -11.421875 Z M 5 -6.71875" transform="translate(238.142 322.559)"/></g></g></g><g fill="#071400"><g><g><path d="M 3.15625 -4.390625 C 3.15625 -3.523438 3.296875 -2.867188 3.578125 -2.421875 C 3.859375 -1.984375 4.320312 -1.765625 4.96875 -1.765625 C 5.601562 -1.765625 6.054688 -1.984375 6.328125 -2.421875 C 6.609375 -2.859375 6.75 -3.515625 6.75 -4.390625 C 6.75 -5.253906 6.609375 -5.898438 6.328125 -6.328125 C 6.046875 -6.765625 5.585938 -6.984375 4.953125 -6.984375 C 4.316406 -6.984375 3.859375 -6.765625 3.578125 -6.328125 C 3.296875 -5.898438 3.15625 -5.253906 3.15625 -4.390625 Z M 9.1875 -4.390625 C 9.1875 -2.960938 8.8125 -1.847656 8.0625 -1.046875 C 7.3125 -0.242188 6.269531 0.15625 4.9375 0.15625 C 4.09375 0.15625 3.347656 -0.0234375 2.703125 -0.390625 C 2.066406 -0.765625 1.578125 -1.296875 1.234375 -1.984375 C 0.890625 -2.671875 0.71875 -3.472656 0.71875 -4.390625 C 0.71875 -5.816406 1.085938 -6.925781 1.828125 -7.71875 C 2.578125 -8.507812 3.628906 -8.90625 4.984375 -8.90625 C 5.816406 -8.90625 6.550781 -8.722656 7.1875 -8.359375 C 7.832031 -7.992188 8.328125 -7.46875 8.671875 -6.78125 C 9.015625 -6.101562 9.1875 -5.304688 9.1875 -4.390625 Z M 9.1875 -4.390625" transform="translate(248.124 322.559)"/></g></g></g><g fill="#071400"><g><g><path d="M 8.859375 -8.734375 L 8.859375 -7.53125 L 7.484375 -7.171875 C 7.734375 -6.785156 7.859375 -6.347656 7.859375 -5.859375 C 7.859375 -4.921875 7.53125 -4.191406 6.875 -3.671875 C 6.226562 -3.148438 5.320312 -2.890625 4.15625 -2.890625 L 3.734375 -2.90625 L 3.375 -2.953125 C 3.132812 -2.765625 3.015625 -2.554688 3.015625 -2.328125 C 3.015625 -1.984375 3.453125 -1.8125 4.328125 -1.8125 L 5.8125 -1.8125 C 6.769531 -1.8125 7.5 -1.601562 8 -1.1875 C 8.5 -0.78125 8.75 -0.175781 8.75 0.625 C 8.75 1.644531 8.320312 2.4375 7.46875 3 C 6.625 3.5625 5.40625 3.84375 3.8125 3.84375 C 2.59375 3.84375 1.660156 3.628906 1.015625 3.203125 C 0.367188 2.785156 0.046875 2.191406 0.046875 1.421875 C 0.046875 0.898438 0.207031 0.457031 0.53125 0.09375 C 0.863281 -0.257812 1.347656 -0.507812 1.984375 -0.65625 C 1.742188 -0.757812 1.53125 -0.929688 1.34375 -1.171875 C 1.164062 -1.410156 1.078125 -1.660156 1.078125 -1.921875 C 1.078125 -2.253906 1.171875 -2.53125 1.359375 -2.75 C 1.554688 -2.976562 1.835938 -3.195312 2.203125 -3.40625 C 1.742188 -3.601562 1.378906 -3.921875 1.109375 -4.359375 C 0.835938 -4.796875 0.703125 -5.3125 0.703125 -5.90625 C 0.703125 -6.863281 1.007812 -7.601562 1.625 -8.125 C 2.25 -8.644531 3.140625 -8.90625 4.296875 -8.90625 C 4.535156 -8.90625 4.820312 -8.878906 5.15625 -8.828125 C 5.5 -8.785156 5.71875 -8.753906 5.8125 -8.734375 Z M 2.109375 1.234375 C 2.109375 1.566406 2.265625 1.828125 2.578125 2.015625 C 2.898438 2.203125 3.34375 2.296875 3.90625 2.296875 C 4.757812 2.296875 5.425781 2.175781 5.90625 1.9375 C 6.394531 1.707031 6.640625 1.390625 6.640625 0.984375 C 6.640625 0.648438 6.492188 0.421875 6.203125 0.296875 C 5.921875 0.171875 5.484375 0.109375 4.890625 0.109375 L 3.65625 0.109375 C 3.21875 0.109375 2.847656 0.210938 2.546875 0.421875 C 2.253906 0.628906 2.109375 0.898438 2.109375 1.234375 Z M 2.984375 -5.875 C 2.984375 -5.40625 3.085938 -5.03125 3.296875 -4.75 C 3.515625 -4.476562 3.847656 -4.34375 4.296875 -4.34375 C 4.742188 -4.34375 5.070312 -4.476562 5.28125 -4.75 C 5.488281 -5.03125 5.59375 -5.40625 5.59375 -5.875 C 5.59375 -6.925781 5.160156 -7.453125 4.296875 -7.453125 C 3.421875 -7.453125 2.984375 -6.925781 2.984375 -5.875 Z M 2.984375 -5.875" transform="translate(258.028 322.559)"/></g></g></g><g fill="#071400"><g><g><path d="M 6.796875 0 L 6.34375 -1.1875 L 6.28125 -1.1875 C 5.875 -0.6875 5.457031 -0.335938 5.03125 -0.140625 C 4.613281 0.0546875 4.0625 0.15625 3.375 0.15625 C 2.539062 0.15625 1.878906 -0.0820312 1.390625 -0.5625 C 0.910156 -1.039062 0.671875 -1.722656 0.671875 -2.609375 C 0.671875 -3.535156 0.992188 -4.21875 1.640625 -4.65625 C 2.296875 -5.101562 3.273438 -5.347656 4.578125 -5.390625 L 6.09375 -5.4375 L 6.09375 -5.828125 C 6.09375 -6.710938 5.640625 -7.15625 4.734375 -7.15625 C 4.035156 -7.15625 3.21875 -6.941406 2.28125 -6.515625 L 1.484375 -8.125 C 2.492188 -8.65625 3.609375 -8.921875 4.828125 -8.921875 C 6.003906 -8.921875 6.90625 -8.664062 7.53125 -8.15625 C 8.15625 -7.644531 8.46875 -6.867188 8.46875 -5.828125 L 8.46875 0 Z M 6.09375 -4.046875 L 5.171875 -4.015625 C 4.484375 -3.992188 3.96875 -3.867188 3.625 -3.640625 C 3.289062 -3.410156 3.125 -3.0625 3.125 -2.59375 C 3.125 -1.925781 3.507812 -1.59375 4.28125 -1.59375 C 4.832031 -1.59375 5.269531 -1.75 5.59375 -2.0625 C 5.925781 -2.382812 6.09375 -2.804688 6.09375 -3.328125 Z M 6.09375 -4.046875" transform="translate(267.065 322.559)"/></g></g></g></svg>