<?xml version="1.0" encoding="utf-8"?>
<!-- Generator: Adobe Illustrator 24.0.0, SVG Export Plug-In . SVG Version: 6.00 Build 0)  -->
<svg version="1.1" id="Layer_1" xmlns="http://www.w3.org/2000/svg" xmlns:xlink="http://www.w3.org/1999/xlink" x="0px" y="0px"
	 viewBox="0 0 259 258.6" style="enable-background:new 0 0 259 258.6;" xml:space="preserve">
<style type="text/css">
	.st0{fill:#3B3B3B;}
	.st1{fill:#FDFEFD;}
	.st2{fill:#ABCBB3;}
</style>
<g>
	<path d="M-245.2-29.4h-6l-1.2,2.8h-2.3l5.4-11.9h2.2l5.4,11.9h-2.3L-245.2-29.4z M-246-31.1l-2.2-5.2l-2.2,5.2H-246z"/>
	<path d="M-233-35.2c0.7,0.4,1.2,0.9,1.6,1.6c0.4,0.7,0.6,1.5,0.6,2.4c0,0.9-0.2,1.7-0.6,2.4c-0.4,0.7-0.9,1.3-1.6,1.6
		c-0.7,0.4-1.5,0.6-2.4,0.6c-0.6,0-1.2-0.1-1.7-0.3c-0.5-0.2-0.9-0.5-1.3-1v1.2h-2v-12.6h2.1v4.6c0.4-0.4,0.8-0.7,1.3-0.9
		s1-0.3,1.6-0.3C-234.5-35.8-233.7-35.6-233-35.2z M-233.7-29.1c0.5-0.5,0.8-1.2,0.8-2.1c0-0.9-0.3-1.5-0.8-2.1
		c-0.5-0.5-1.1-0.8-1.9-0.8c-0.5,0-1,0.1-1.4,0.3c-0.4,0.2-0.7,0.6-1,1c-0.2,0.4-0.4,0.9-0.4,1.5c0,0.6,0.1,1.1,0.4,1.5s0.6,0.8,1,1
		c0.4,0.2,0.9,0.3,1.4,0.3C-234.9-28.3-234.2-28.6-233.7-29.1z"/>
	<path d="M-220-35.7v9.1h-2v-1.2c-0.3,0.4-0.8,0.7-1.3,0.9c-0.5,0.2-1.1,0.3-1.6,0.3c-1.2,0-2.2-0.3-2.9-1c-0.7-0.7-1-1.7-1-3v-5.2
		h2.1v4.9c0,0.8,0.2,1.4,0.6,1.8c0.4,0.4,0.9,0.6,1.6,0.6c0.8,0,1.4-0.2,1.8-0.7c0.4-0.5,0.7-1.1,0.7-2v-4.6H-220z"/>
	<path d="M-209.3-34.8c0.7,0.7,1,1.7,1,3v5.2h-2.1v-4.9c0-0.8-0.2-1.4-0.6-1.8c-0.4-0.4-0.9-0.6-1.6-0.6c-0.8,0-1.4,0.2-1.9,0.7
		c-0.5,0.5-0.7,1.1-0.7,2v4.6h-2.1v-9.1h2v1.2c0.4-0.4,0.8-0.7,1.3-1c0.5-0.2,1.1-0.3,1.8-0.3C-210.9-35.8-210-35.5-209.3-34.8z"/>
	<path d="M-196.7-39.2v12.6h-2v-1.2c-0.4,0.4-0.8,0.8-1.3,1c-0.5,0.2-1.1,0.3-1.7,0.3c-0.9,0-1.7-0.2-2.4-0.6
		c-0.7-0.4-1.2-0.9-1.6-1.6c-0.4-0.7-0.6-1.5-0.6-2.4c0-0.9,0.2-1.7,0.6-2.4c0.4-0.7,0.9-1.2,1.6-1.6c0.7-0.4,1.5-0.6,2.4-0.6
		c0.6,0,1.1,0.1,1.6,0.3s0.9,0.5,1.3,0.9v-4.7H-196.7z M-200.1-28.7c0.4-0.2,0.7-0.6,1-1s0.4-0.9,0.4-1.5c0-0.6-0.1-1.1-0.4-1.5
		c-0.2-0.4-0.6-0.8-1-1s-0.9-0.3-1.4-0.3s-1,0.1-1.4,0.3s-0.7,0.6-1,1c-0.2,0.4-0.4,0.9-0.4,1.5c0,0.6,0.1,1.1,0.4,1.5
		c0.2,0.4,0.6,0.8,1,1s0.9,0.3,1.4,0.3S-200.5-28.4-200.1-28.7z"/>
	<path d="M-187.3-34.8c0.7,0.6,1.1,1.6,1.1,2.9v5.3h-2v-1.1c-0.3,0.4-0.6,0.7-1.1,0.9c-0.5,0.2-1.1,0.3-1.7,0.3s-1.3-0.1-1.8-0.3
		c-0.5-0.2-0.9-0.6-1.2-1c-0.3-0.4-0.4-0.9-0.4-1.4c0-0.8,0.3-1.5,0.9-2s1.6-0.7,2.9-0.7h2.3v-0.1c0-0.6-0.2-1.1-0.6-1.5
		c-0.4-0.3-0.9-0.5-1.7-0.5c-0.5,0-1,0.1-1.5,0.2s-0.9,0.4-1.2,0.7l-0.8-1.5c0.5-0.4,1-0.6,1.7-0.8c0.7-0.2,1.4-0.3,2.1-0.3
		C-189.1-35.8-188-35.5-187.3-34.8z M-189.3-28.4c0.4-0.2,0.7-0.6,0.9-1v-1.1h-2.2c-1.2,0-1.8,0.4-1.8,1.2c0,0.4,0.2,0.7,0.5,0.9
		c0.3,0.2,0.7,0.3,1.3,0.3C-190.2-28.1-189.7-28.2-189.3-28.4z"/>
	<path d="M-175.6-34.8c0.7,0.7,1,1.7,1,3v5.2h-2.1v-4.9c0-0.8-0.2-1.4-0.6-1.8c-0.4-0.4-0.9-0.6-1.6-0.6c-0.8,0-1.4,0.2-1.9,0.7
		c-0.5,0.5-0.7,1.1-0.7,2v4.6h-2.1v-9.1h2v1.2c0.4-0.4,0.8-0.7,1.3-1c0.5-0.2,1.1-0.3,1.8-0.3C-177.3-35.8-176.3-35.5-175.6-34.8z"
		/>
	<path d="M-170.3-27.1c-0.7-0.4-1.3-0.9-1.8-1.7c-0.4-0.7-0.6-1.5-0.6-2.4c0-0.9,0.2-1.7,0.6-2.4c0.4-0.7,1-1.3,1.7-1.6
		c0.7-0.4,1.6-0.6,2.5-0.6c0.9,0,1.7,0.2,2.4,0.5c0.7,0.4,1.2,0.9,1.5,1.6l-1.6,1c-0.3-0.4-0.6-0.7-1-0.9c-0.4-0.2-0.8-0.3-1.3-0.3
		c-0.8,0-1.5,0.3-2,0.8c-0.5,0.5-0.8,1.2-0.8,2.1c0,0.9,0.3,1.5,0.8,2.1c0.5,0.5,1.2,0.8,2,0.8c0.5,0,0.9-0.1,1.3-0.3
		c0.4-0.2,0.7-0.5,1-0.9l1.6,1c-0.4,0.7-0.9,1.2-1.5,1.6c-0.7,0.4-1.5,0.6-2.3,0.6C-168.7-26.5-169.5-26.7-170.3-27.1z"/>
	<path d="M-153.5-30.5h-7.1c0.1,0.7,0.5,1.2,1,1.6c0.5,0.4,1.2,0.6,2,0.6c1,0,1.8-0.3,2.5-1l1.1,1.3c-0.4,0.5-0.9,0.9-1.5,1.1
		c-0.6,0.2-1.3,0.4-2.1,0.4c-1,0-1.9-0.2-2.6-0.6c-0.8-0.4-1.3-0.9-1.8-1.7c-0.4-0.7-0.6-1.5-0.6-2.4c0-0.9,0.2-1.7,0.6-2.4
		c0.4-0.7,1-1.3,1.7-1.7c0.7-0.4,1.5-0.6,2.4-0.6c0.9,0,1.7,0.2,2.4,0.6c0.7,0.4,1.2,0.9,1.6,1.6c0.4,0.7,0.6,1.5,0.6,2.5
		C-153.5-31-153.5-30.8-153.5-30.5z M-159.8-33.5c-0.5,0.4-0.8,0.9-0.9,1.6h5.2c-0.1-0.7-0.4-1.2-0.8-1.6c-0.5-0.4-1-0.6-1.7-0.6
		C-158.8-34.1-159.3-33.9-159.8-33.5z"/>
	<path d="M-144.1-36.7h-3.9v-1.9h10.1v1.9h-3.9v10h-2.2V-36.7z"/>
	<path d="M-128.6-34.8c0.7,0.7,1,1.7,1,3v5.2h-2.1v-4.9c0-0.8-0.2-1.4-0.6-1.8c-0.4-0.4-0.9-0.6-1.6-0.6c-0.8,0-1.4,0.2-1.9,0.7
		c-0.5,0.5-0.7,1.1-0.7,2v4.6h-2.1v-12.6h2.1v4.6c0.4-0.4,0.8-0.7,1.3-0.9s1.1-0.3,1.7-0.3C-130.2-35.8-129.3-35.5-128.6-34.8z"/>
	<path d="M-116.4-30.5h-7.1c0.1,0.7,0.5,1.2,1,1.6c0.5,0.4,1.2,0.6,2,0.6c1,0,1.8-0.3,2.5-1l1.1,1.3c-0.4,0.5-0.9,0.9-1.5,1.1
		c-0.6,0.2-1.3,0.4-2.1,0.4c-1,0-1.9-0.2-2.6-0.6c-0.8-0.4-1.3-0.9-1.8-1.7c-0.4-0.7-0.6-1.5-0.6-2.4c0-0.9,0.2-1.7,0.6-2.4
		c0.4-0.7,1-1.3,1.7-1.7c0.7-0.4,1.5-0.6,2.4-0.6c0.9,0,1.7,0.2,2.4,0.6c0.7,0.4,1.2,0.9,1.6,1.6c0.4,0.7,0.6,1.5,0.6,2.5
		C-116.4-31-116.4-30.8-116.4-30.5z M-122.7-33.5c-0.5,0.4-0.8,0.9-0.9,1.6h5.2c-0.1-0.7-0.4-1.2-0.8-1.6c-0.5-0.4-1-0.6-1.7-0.6
		C-121.6-34.1-122.2-33.9-122.7-33.5z"/>
	<path d="M-109.1-35.8v2c-0.2,0-0.3-0.1-0.5-0.1c-0.8,0-1.5,0.2-1.9,0.7s-0.7,1.2-0.7,2.1v4.4h-2.1v-9.1h2v1.3
		C-111.7-35.3-110.6-35.8-109.1-35.8z"/>
	<path d="M-100.6-34.8c0.7,0.6,1.1,1.6,1.1,2.9v5.3h-2v-1.1c-0.3,0.4-0.6,0.7-1.1,0.9c-0.5,0.2-1.1,0.3-1.7,0.3s-1.3-0.1-1.8-0.3
		c-0.5-0.2-0.9-0.6-1.2-1c-0.3-0.4-0.4-0.9-0.4-1.4c0-0.8,0.3-1.5,0.9-2s1.6-0.7,2.9-0.7h2.3v-0.1c0-0.6-0.2-1.1-0.6-1.5
		c-0.4-0.3-0.9-0.5-1.7-0.5c-0.5,0-1,0.1-1.5,0.2s-0.9,0.4-1.2,0.7l-0.8-1.5c0.5-0.4,1-0.6,1.7-0.8c0.7-0.2,1.4-0.3,2.1-0.3
		C-102.4-35.8-101.3-35.5-100.6-34.8z M-102.6-28.4c0.4-0.2,0.7-0.6,0.9-1v-1.1h-2.2c-1.2,0-1.8,0.4-1.8,1.2c0,0.4,0.2,0.7,0.5,0.9
		c0.3,0.2,0.7,0.3,1.3,0.3C-103.5-28.1-103-28.2-102.6-28.4z"/>
	<path d="M-89.4-35.2c0.7,0.4,1.2,0.9,1.6,1.6c0.4,0.7,0.6,1.5,0.6,2.4c0,0.9-0.2,1.7-0.6,2.4c-0.4,0.7-0.9,1.3-1.6,1.6
		c-0.7,0.4-1.5,0.6-2.4,0.6c-1.2,0-2.2-0.4-2.9-1.2v4.4h-2.1v-12.4h2v1.2c0.4-0.4,0.8-0.8,1.3-1c0.5-0.2,1.1-0.3,1.7-0.3
		C-90.9-35.8-90.1-35.6-89.4-35.2z M-90.1-29.1c0.5-0.5,0.8-1.2,0.8-2.1c0-0.9-0.3-1.5-0.8-2.1c-0.5-0.5-1.1-0.8-1.9-0.8
		c-0.5,0-1,0.1-1.4,0.3c-0.4,0.2-0.7,0.6-1,1c-0.2,0.4-0.4,0.9-0.4,1.5c0,0.6,0.1,1.1,0.4,1.5s0.6,0.8,1,1c0.4,0.2,0.9,0.3,1.4,0.3
		C-91.3-28.3-90.6-28.6-90.1-29.1z"/>
	<path d="M-85.1-37.6c-0.3-0.2-0.4-0.5-0.4-0.9c0-0.4,0.1-0.7,0.4-0.9s0.6-0.4,1-0.4s0.7,0.1,1,0.3s0.4,0.5,0.4,0.9
		c0,0.4-0.1,0.7-0.4,0.9s-0.6,0.4-1,0.4C-84.5-37.2-84.8-37.3-85.1-37.6z M-85.2-35.7h2.1v9.1h-2.1V-35.7z"/>
	<path d="M-71.8-30.5h-7.1c0.1,0.7,0.5,1.2,1,1.6c0.5,0.4,1.2,0.6,2,0.6c1,0,1.8-0.3,2.5-1l1.1,1.3c-0.4,0.5-0.9,0.9-1.5,1.1
		c-0.6,0.2-1.3,0.4-2.1,0.4c-1,0-1.9-0.2-2.6-0.6c-0.8-0.4-1.3-0.9-1.8-1.7c-0.4-0.7-0.6-1.5-0.6-2.4c0-0.9,0.2-1.7,0.6-2.4
		c0.4-0.7,1-1.3,1.7-1.7c0.7-0.4,1.5-0.6,2.4-0.6c0.9,0,1.7,0.2,2.4,0.6c0.7,0.4,1.2,0.9,1.6,1.6c0.4,0.7,0.6,1.5,0.6,2.5
		C-71.7-31-71.8-30.8-71.8-30.5z M-78.1-33.5c-0.5,0.4-0.8,0.9-0.9,1.6h5.2c-0.1-0.7-0.4-1.2-0.8-1.6c-0.5-0.4-1-0.6-1.7-0.6
		C-77-34.1-77.6-33.9-78.1-33.5z"/>
	<path d="M-69.1-26.8c-0.7-0.2-1.3-0.4-1.7-0.7l0.8-1.6c0.4,0.3,0.9,0.5,1.5,0.7c0.6,0.2,1.1,0.2,1.7,0.2c1.3,0,1.9-0.3,1.9-1
		c0-0.3-0.2-0.5-0.5-0.7c-0.3-0.1-0.8-0.2-1.6-0.4c-0.7-0.1-1.4-0.2-1.8-0.4c-0.5-0.1-0.9-0.4-1.2-0.8c-0.3-0.4-0.5-0.9-0.5-1.5
		c0-0.9,0.4-1.5,1.1-2.1c0.7-0.5,1.7-0.8,2.9-0.8c0.6,0,1.2,0.1,1.9,0.2c0.6,0.1,1.1,0.3,1.5,0.6l-0.8,1.6c-0.8-0.5-1.6-0.7-2.6-0.7
		c-0.6,0-1.1,0.1-1.4,0.3s-0.5,0.4-0.5,0.7c0,0.3,0.2,0.6,0.5,0.7c0.3,0.1,0.9,0.3,1.6,0.4c0.7,0.1,1.3,0.2,1.8,0.4
		c0.5,0.1,0.9,0.4,1.2,0.7c0.3,0.4,0.5,0.9,0.5,1.5c0,0.9-0.4,1.5-1.1,2c-0.7,0.5-1.7,0.8-3,0.8C-67.6-26.5-68.4-26.6-69.1-26.8z"/>
	<path d="M-61.3-26.9c-0.3-0.3-0.4-0.6-0.4-1c0-0.4,0.1-0.8,0.4-1c0.3-0.3,0.6-0.4,1-0.4c0.4,0,0.7,0.1,1,0.4s0.4,0.6,0.4,1
		c0,0.4-0.1,0.7-0.4,1c-0.3,0.3-0.6,0.4-1,0.4C-60.7-26.5-61-26.6-61.3-26.9z"/>
</g>
<g>
	<path class="st0" d="M0.1,258.4c0-85.3,0-170.6-0.1-255.9C0,0.3,0.6,0,2.6,0c84.6,0.1,169.2,0.1,253.9,0c2,0,2.6,0.3,2.6,2.5
		c-0.1,85.3-0.1,170.6-0.1,255.9c-0.9,0.5-1.9,0.2-2.8,0.2c-84.4,0-168.9,0-253.3,0C1.9,258.6,1,258.8,0.1,258.4z"/>
	<path class="st1" d="M129.2,250.1c-39.4,0-78.9,0-118.3,0.1c-2.2,0-2.8-0.4-2.8-2.8c0.1-78.8,0.1-157.5,0-236.3
		C8.1,8.5,8.8,8,11.2,8c78.9,0.1,157.7,0.1,236.6,0c2.4,0,2.9,0.6,2.9,2.9c-0.1,78.8-0.1,157.5,0,236.3c0,2.4-0.7,2.9-3,2.9
		C208.3,250.1,168.7,250.1,129.2,250.1z"/>
	<g>
		<path class="st2" d="M129.1,105.7c2.3-5.5,5-10,8.6-14.1c6.9-7.7,15.4-12.7,25.5-14.6c13.7-2.6,26.2,0.4,37.1,9.1
			c9.2,7.3,14.8,16.8,16.8,28.4c2.3,13.4-1.9,25.3-8.1,36.7c-6.3,11.5-14.5,21.7-23.4,31.3c-14.6,15.8-30.7,29.8-47.9,42.7
			c-2.5,1.9-4.9,3.7-7.4,5.6c-0.9,0.7-1.5,0.7-2.5,0c-11.3-8-22.1-16.7-32.5-25.8c-7-6.1-13.8-12.5-20.2-19.3
			c-10.8-11.5-20.8-23.7-27.9-37.9c-4.2-8.4-7-17.3-7-26.7c0-10.6,3.6-20.2,10.5-28.4c7.4-8.8,16.8-14.4,28.3-16.1
			c14.1-2.1,26.6,1.5,37.3,10.9c2.7,2.4,5.2,5,7.3,8C125.6,98.7,127.4,101.8,129.1,105.7z"/>
		<g>
			<path d="M40.9,53.8h-6l-1.2,2.8h-2.3l5.4-11.9h2.2l5.4,11.9h-2.3L40.9,53.8z M40.2,52L38,46.8L35.7,52H40.2z"/>
			<path d="M53.2,47.9c0.7,0.4,1.2,0.9,1.6,1.6c0.4,0.7,0.6,1.5,0.6,2.4s-0.2,1.7-0.6,2.4c-0.4,0.7-0.9,1.3-1.6,1.6
				c-0.7,0.4-1.5,0.6-2.4,0.6c-0.6,0-1.2-0.1-1.7-0.3c-0.5-0.2-0.9-0.5-1.3-1v1.2h-2V43.9h2.1v4.6c0.4-0.4,0.8-0.7,1.3-0.9
				s1-0.3,1.6-0.3C51.7,47.3,52.5,47.5,53.2,47.9z M52.5,54c0.5-0.5,0.8-1.2,0.8-2.1s-0.3-1.5-0.8-2.1c-0.5-0.5-1.1-0.8-1.9-0.8
				c-0.5,0-1,0.1-1.4,0.3c-0.4,0.2-0.7,0.6-1,1c-0.2,0.4-0.4,0.9-0.4,1.5c0,0.6,0.1,1.1,0.4,1.5s0.6,0.8,1,1
				c0.4,0.2,0.9,0.3,1.4,0.3C51.3,54.8,52,54.6,52.5,54z"/>
			<path d="M66.2,47.4v9.1h-2v-1.2c-0.3,0.4-0.8,0.7-1.3,0.9c-0.5,0.2-1.1,0.3-1.6,0.3c-1.2,0-2.2-0.3-2.9-1c-0.7-0.7-1-1.7-1-3
				v-5.2h2.1v4.9c0,0.8,0.2,1.4,0.6,1.8c0.4,0.4,0.9,0.6,1.6,0.6c0.8,0,1.4-0.2,1.8-0.7c0.4-0.5,0.7-1.1,0.7-2v-4.6H66.2z"/>
			<path d="M76.9,48.3c0.7,0.7,1,1.7,1,3v5.2h-2.1v-4.9c0-0.8-0.2-1.4-0.6-1.8c-0.4-0.4-0.9-0.6-1.6-0.6c-0.8,0-1.4,0.2-1.9,0.7
				c-0.5,0.5-0.7,1.1-0.7,2v4.6H69v-9.1h2v1.2c0.4-0.4,0.8-0.7,1.3-1c0.5-0.2,1.1-0.3,1.8-0.3C75.3,47.3,76.2,47.7,76.9,48.3z"/>
			<path d="M89.6,43.9v12.6h-2v-1.2c-0.4,0.4-0.8,0.8-1.3,1c-0.5,0.2-1.1,0.3-1.7,0.3c-0.9,0-1.7-0.2-2.4-0.6
				c-0.7-0.4-1.2-0.9-1.6-1.6C80.2,53.7,80,52.9,80,52s0.2-1.7,0.6-2.4c0.4-0.7,0.9-1.2,1.6-1.6c0.7-0.4,1.5-0.6,2.4-0.6
				c0.6,0,1.1,0.1,1.6,0.3s0.9,0.5,1.3,0.9v-4.7H89.6z M86.2,54.5c0.4-0.2,0.7-0.6,1-1s0.4-0.9,0.4-1.5c0-0.6-0.1-1.1-0.4-1.5
				c-0.2-0.4-0.6-0.8-1-1s-0.9-0.3-1.4-0.3s-1,0.1-1.4,0.3s-0.7,0.6-1,1c-0.2,0.4-0.4,0.9-0.4,1.5c0,0.6,0.1,1.1,0.4,1.5
				c0.2,0.4,0.6,0.8,1,1s0.9,0.3,1.4,0.3S85.8,54.7,86.2,54.5z"/>
			<path d="M98.9,48.3c0.7,0.6,1.1,1.6,1.1,2.9v5.3h-2v-1.1c-0.3,0.4-0.6,0.7-1.1,0.9c-0.5,0.2-1.1,0.3-1.7,0.3s-1.3-0.1-1.8-0.3
				c-0.5-0.2-0.9-0.6-1.2-1c-0.3-0.4-0.4-0.9-0.4-1.4c0-0.8,0.3-1.5,0.9-2s1.6-0.7,2.9-0.7h2.3v-0.1c0-0.6-0.2-1.1-0.6-1.5
				c-0.4-0.3-0.9-0.5-1.7-0.5c-0.5,0-1,0.1-1.5,0.2s-0.9,0.4-1.2,0.7L92,48.5c0.5-0.4,1-0.6,1.7-0.8c0.7-0.2,1.4-0.3,2.1-0.3
				C97.2,47.3,98.2,47.7,98.9,48.3z M97,54.7c0.4-0.2,0.7-0.6,0.9-1v-1.1h-2.2c-1.2,0-1.8,0.4-1.8,1.2c0,0.4,0.2,0.7,0.5,0.9
				c0.3,0.2,0.7,0.3,1.3,0.3C96.1,55.1,96.6,55,97,54.7z"/>
			<path d="M110.6,48.3c0.7,0.7,1,1.7,1,3v5.2h-2.1v-4.9c0-0.8-0.2-1.4-0.6-1.8c-0.4-0.4-0.9-0.6-1.6-0.6c-0.8,0-1.4,0.2-1.9,0.7
				c-0.5,0.5-0.7,1.1-0.7,2v4.6h-2.1v-9.1h2v1.2c0.4-0.4,0.8-0.7,1.3-1c0.5-0.2,1.1-0.3,1.8-0.3C109,47.3,109.9,47.7,110.6,48.3z"/>
			<path d="M116.1,56c-0.7-0.4-1.3-0.9-1.8-1.7c-0.4-0.7-0.6-1.5-0.6-2.4c0-0.9,0.2-1.7,0.6-2.4c0.4-0.7,1-1.3,1.7-1.6
				c0.7-0.4,1.6-0.6,2.5-0.6c0.9,0,1.7,0.2,2.4,0.5c0.7,0.4,1.2,0.9,1.5,1.6l-1.6,1c-0.3-0.4-0.6-0.7-1-0.9
				c-0.4-0.2-0.8-0.3-1.3-0.3c-0.8,0-1.5,0.3-2,0.8c-0.5,0.5-0.8,1.2-0.8,2.1s0.3,1.5,0.8,2.1c0.5,0.5,1.2,0.8,2,0.8
				c0.5,0,0.9-0.1,1.3-0.3c0.4-0.2,0.7-0.5,1-0.9l1.6,1c-0.4,0.7-0.9,1.2-1.5,1.6c-0.7,0.4-1.5,0.6-2.3,0.6
				C117.7,56.6,116.8,56.4,116.1,56z"/>
			<path d="M132.7,52.7h-7.1c0.1,0.7,0.5,1.2,1,1.6c0.5,0.4,1.2,0.6,2,0.6c1,0,1.8-0.3,2.5-1l1.1,1.3c-0.4,0.5-0.9,0.9-1.5,1.1
				c-0.6,0.2-1.3,0.4-2.1,0.4c-1,0-1.9-0.2-2.6-0.6c-0.8-0.4-1.3-0.9-1.8-1.7c-0.4-0.7-0.6-1.5-0.6-2.4c0-0.9,0.2-1.7,0.6-2.4
				c0.4-0.7,1-1.3,1.7-1.7c0.7-0.4,1.5-0.6,2.4-0.6c0.9,0,1.7,0.2,2.4,0.6c0.7,0.4,1.2,0.9,1.6,1.6c0.4,0.7,0.6,1.5,0.6,2.5
				C132.7,52.2,132.7,52.4,132.7,52.7z M126.4,49.6c-0.5,0.4-0.8,0.9-0.9,1.6h5.2c-0.1-0.7-0.4-1.2-0.8-1.6c-0.5-0.4-1-0.6-1.7-0.6
				C127.5,49,126.9,49.2,126.4,49.6z"/>
			<path d="M142.1,46.5h-3.9v-1.9h10.1v1.9h-3.9v10h-2.2V46.5z"/>
			<path d="M157.6,48.3c0.7,0.7,1,1.7,1,3v5.2h-2.1v-4.9c0-0.8-0.2-1.4-0.6-1.8c-0.4-0.4-0.9-0.6-1.6-0.6c-0.8,0-1.4,0.2-1.9,0.7
				c-0.5,0.5-0.7,1.1-0.7,2v4.6h-2.1V43.9h2.1v4.6c0.4-0.4,0.8-0.7,1.3-0.9s1.1-0.3,1.7-0.3C156,47.3,156.9,47.7,157.6,48.3z"/>
			<path d="M169.9,52.7h-7.1c0.1,0.7,0.5,1.2,1,1.6c0.5,0.4,1.2,0.6,2,0.6c1,0,1.8-0.3,2.5-1l1.1,1.3c-0.4,0.5-0.9,0.9-1.5,1.1
				c-0.6,0.2-1.3,0.4-2.1,0.4c-1,0-1.9-0.2-2.6-0.6c-0.8-0.4-1.3-0.9-1.8-1.7c-0.4-0.7-0.6-1.5-0.6-2.4c0-0.9,0.2-1.7,0.6-2.4
				c0.4-0.7,1-1.3,1.7-1.7c0.7-0.4,1.5-0.6,2.4-0.6c0.9,0,1.7,0.2,2.4,0.6c0.7,0.4,1.2,0.9,1.6,1.6c0.4,0.7,0.6,1.5,0.6,2.5
				C170,52.2,169.9,52.4,169.9,52.7z M163.6,49.6c-0.5,0.4-0.8,0.9-0.9,1.6h5.2c-0.1-0.7-0.4-1.2-0.8-1.6c-0.5-0.4-1-0.6-1.7-0.6
				C164.7,49,164.1,49.2,163.6,49.6z"/>
			<path d="M177.3,47.3v2c-0.2,0-0.3-0.1-0.5-0.1c-0.8,0-1.5,0.2-1.9,0.7s-0.7,1.2-0.7,2.1v4.4H172v-9.1h2v1.3
				C174.6,47.8,175.7,47.3,177.3,47.3z"/>
			<path d="M185.5,48.3c0.7,0.6,1.1,1.6,1.1,2.9v5.3h-2v-1.1c-0.3,0.4-0.6,0.7-1.1,0.9c-0.5,0.2-1.1,0.3-1.7,0.3s-1.3-0.1-1.8-0.3
				c-0.5-0.2-0.9-0.6-1.2-1c-0.3-0.4-0.4-0.9-0.4-1.4c0-0.8,0.3-1.5,0.9-2s1.6-0.7,2.9-0.7h2.3v-0.1c0-0.6-0.2-1.1-0.6-1.5
				c-0.4-0.3-0.9-0.5-1.7-0.5c-0.5,0-1,0.1-1.5,0.2s-0.9,0.4-1.2,0.7l-0.8-1.5c0.5-0.4,1-0.6,1.7-0.8c0.7-0.2,1.4-0.3,2.1-0.3
				C183.8,47.3,184.8,47.7,185.5,48.3z M183.6,54.7c0.4-0.2,0.7-0.6,0.9-1v-1.1h-2.2c-1.2,0-1.8,0.4-1.8,1.2c0,0.4,0.2,0.7,0.5,0.9
				c0.3,0.2,0.7,0.3,1.3,0.3C182.7,55.1,183.2,55,183.6,54.7z"/>
			<path d="M196.7,47.9c0.7,0.4,1.2,0.9,1.6,1.6c0.4,0.7,0.6,1.5,0.6,2.4s-0.2,1.7-0.6,2.4c-0.4,0.7-0.9,1.3-1.6,1.6
				c-0.7,0.4-1.5,0.6-2.4,0.6c-1.2,0-2.2-0.4-2.9-1.2v4.4h-2.1V47.4h2v1.2c0.4-0.4,0.8-0.8,1.3-1c0.5-0.2,1.1-0.3,1.7-0.3
				C195.2,47.3,196,47.5,196.7,47.9z M196,54c0.5-0.5,0.8-1.2,0.8-2.1s-0.3-1.5-0.8-2.1c-0.5-0.5-1.1-0.8-1.9-0.8
				c-0.5,0-1,0.1-1.4,0.3c-0.4,0.2-0.7,0.6-1,1c-0.2,0.4-0.4,0.9-0.4,1.5c0,0.6,0.1,1.1,0.4,1.5s0.6,0.8,1,1
				c0.4,0.2,0.9,0.3,1.4,0.3C194.9,54.8,195.5,54.6,196,54z"/>
			<path d="M201.1,45.6c-0.3-0.2-0.4-0.5-0.4-0.9c0-0.4,0.1-0.7,0.4-0.9s0.6-0.4,1-0.4s0.7,0.1,1,0.3s0.4,0.5,0.4,0.9
				c0,0.4-0.1,0.7-0.4,0.9s-0.6,0.4-1,0.4C201.7,45.9,201.3,45.8,201.1,45.6z M201,47.4h2.1v9.1H201V47.4z"/>
			<path d="M214.4,52.7h-7.1c0.1,0.7,0.5,1.2,1,1.6c0.5,0.4,1.2,0.6,2,0.6c1,0,1.8-0.3,2.5-1l1.1,1.3c-0.4,0.5-0.9,0.9-1.5,1.1
				c-0.6,0.2-1.3,0.4-2.1,0.4c-1,0-1.9-0.2-2.6-0.6c-0.8-0.4-1.3-0.9-1.8-1.7c-0.4-0.7-0.6-1.5-0.6-2.4c0-0.9,0.2-1.7,0.6-2.4
				c0.4-0.7,1-1.3,1.7-1.7c0.7-0.4,1.5-0.6,2.4-0.6c0.9,0,1.7,0.2,2.4,0.6c0.7,0.4,1.2,0.9,1.6,1.6c0.4,0.7,0.6,1.5,0.6,2.5
				C214.4,52.2,214.4,52.4,214.4,52.7z M208.1,49.6c-0.5,0.4-0.8,0.9-0.9,1.6h5.2c-0.1-0.7-0.4-1.2-0.8-1.6c-0.5-0.4-1-0.6-1.7-0.6
				C209.2,49,208.6,49.2,208.1,49.6z"/>
			<path d="M217.1,56.3c-0.7-0.2-1.3-0.4-1.7-0.7l0.8-1.6c0.4,0.3,0.9,0.5,1.5,0.7c0.6,0.2,1.1,0.2,1.7,0.2c1.3,0,1.9-0.3,1.9-1
				c0-0.3-0.2-0.5-0.5-0.7c-0.3-0.1-0.8-0.2-1.6-0.4c-0.7-0.1-1.4-0.2-1.8-0.4c-0.5-0.1-0.9-0.4-1.2-0.8c-0.3-0.4-0.5-0.9-0.5-1.5
				c0-0.9,0.4-1.5,1.1-2.1c0.7-0.5,1.7-0.8,2.9-0.8c0.6,0,1.2,0.1,1.9,0.2c0.6,0.1,1.1,0.3,1.5,0.6l-0.8,1.6
				c-0.8-0.5-1.6-0.7-2.6-0.7c-0.6,0-1.1,0.1-1.4,0.3s-0.5,0.4-0.5,0.7c0,0.3,0.2,0.6,0.5,0.7c0.3,0.1,0.9,0.3,1.6,0.4
				c0.7,0.1,1.3,0.2,1.8,0.4c0.5,0.1,0.9,0.4,1.2,0.7c0.3,0.4,0.5,0.9,0.5,1.5c0,0.9-0.4,1.5-1.1,2c-0.7,0.5-1.7,0.8-3,0.8
				C218.5,56.6,217.8,56.5,217.1,56.3z"/>
			<path d="M224.9,56.2c-0.3-0.3-0.4-0.6-0.4-1c0-0.4,0.1-0.8,0.4-1c0.3-0.3,0.6-0.4,1-0.4c0.4,0,0.7,0.1,1,0.4s0.4,0.6,0.4,1
				c0,0.4-0.1,0.7-0.4,1c-0.3,0.3-0.6,0.4-1,0.4C225.5,56.6,225.2,56.5,224.9,56.2z"/>
		</g>
	</g>
</g>
</svg>
