<svg xmlns="http://www.w3.org/2000/svg" width="82.916" height="82.67" viewBox="0 0 82.916 82.67">
  <g id="noun_Mail_1839990" transform="translate(-5.595 -181.166)">
    <g id="Group_2795" data-name="Group 2795" transform="translate(6.595 182.223)">
      <path id="Path_17918" data-name="Path 17918" d="M178.408,212.448l6.113-4.631V194.96a.981.981,0,0,1,.963-.963h17.191L217.9,182.4a.946.946,0,0,1,1.149.037L234.241,194h17.191a.981.981,0,0,1,.963.963v12.856l6.113,4.631a.967.967,0,0,1,.408.778v48.646a.949.949,0,0,1-.926.963H178.926a.949.949,0,0,1-.926-.963V213.226A.967.967,0,0,1,178.408,212.448Zm6.113-2.3-4.038,3.075,4.038,3.112Zm1.89,7.6,32.048,24.416,32.048-24.416V195.886h-64.1Zm65.985-1.408,4.038-3.112L252.4,210.15ZM205.75,194h25.416l-12.708-9.67Zm49.943,66.949L230.166,235.6l-11.115,8.447a.946.946,0,0,1-1.149.037L206.751,235.6l-25.527,25.342Zm-24.008-26.491,25.342,25.194v-44.5Zm-51.8-19.3v44.5l25.342-25.194Z" transform="translate(-178 -182.223)" fill="#00d0ac" stroke="#00d0ac" strokeWidth="2"/>
    </g>
  </g>
</svg>
