<svg id="Group_276" data-name="Group 276" xmlns="http://www.w3.org/2000/svg" width="19.485" height="19.215" viewBox="0 0 19.485 19.215">
  <path id="Path_4150" data-name="Path 4150" d="M95.09,103.165c.065-.456.114-.915.2-1.367a5.015,5.015,0,0,1,4.876-4.4c3.125-.107,6.259-.113,9.384,0a5.022,5.022,0,0,1,4.959,5.019q.141,4.5,0,9.009a5.021,5.021,0,0,1-4.959,5.019c-3.125.113-6.26.116-9.384,0a5.108,5.108,0,0,1-4.967-5.033c-.016-.245-.069-.487-.1-.731Zm9.745,11.607c1.43,0,2.861.043,4.289-.01a3.489,3.489,0,0,0,3.669-3.656q.1-4.181,0-8.366a3.467,3.467,0,0,0-3.669-3.652q-4.261-.09-8.525,0a3.446,3.446,0,0,0-3.663,3.6q-.115,4.234,0,8.472a3.469,3.469,0,0,0,3.663,3.6C102.01,114.815,103.423,114.772,104.835,114.772Z" transform="translate(-95.09 -97.317)" fill="#00d0ac"/>
  <g id="surface31678" transform="translate(7.359 4.116)">
    <path id="Path_4149" data-name="Path 4149" d="M23.424,22.7h-4.44V16.921H21.2l.321-2.568H18.984V12.7c0-.749.184-1.257,1.257-1.257h1.391V9.111c-.237-.03-1.06-.08-2.006-.08a3.1,3.1,0,0,0-3.317,3.4v1.926H14.063v2.568h2.247V22.7Z" transform="translate(-14.063 -9.031)" fill="#00d0ac"/>
  </g>
</svg>
