<svg id="Group_271" data-name="Group 271" xmlns="http://www.w3.org/2000/svg" width="19.485" height="19.215" viewBox="0 0 19.485 19.215">
  <path id="Path_2033" data-name="Path 2033" d="M95.09,103.165c.065-.456.114-.915.2-1.367a5.015,5.015,0,0,1,4.876-4.4c3.125-.107,6.259-.113,9.384,0a5.022,5.022,0,0,1,4.959,5.019q.141,4.5,0,9.009a5.021,5.021,0,0,1-4.959,5.019c-3.125.113-6.26.116-9.384,0a5.108,5.108,0,0,1-4.967-5.033c-.016-.245-.069-.487-.1-.731Zm9.745,11.607c1.43,0,2.861.043,4.289-.01a3.489,3.489,0,0,0,3.669-3.656q.1-4.181,0-8.366a3.467,3.467,0,0,0-3.669-3.652q-4.261-.09-8.525,0a3.446,3.446,0,0,0-3.663,3.6q-.115,4.234,0,8.472a3.469,3.469,0,0,0,3.663,3.6C102.01,114.815,103.423,114.772,104.835,114.772Z" transform="translate(-95.09 -97.317)" fill="#00d0ac"/>
  <path id="Path_2034" data-name="Path 2034" d="M178.957,174a4.965,4.965,0,1,0,4.965,4.965A4.965,4.965,0,0,0,178.957,174Zm0,8.221a3.256,3.256,0,1,1,3.256-3.256A3.256,3.256,0,0,1,178.957,182.217Z" transform="translate(-169.215 -169.353)" fill="#00d0ac"/>
  <path id="Path_2035" data-name="Path 2035" d="M325.648,151.923a1.181,1.181,0,1,1-1.181-1.181A1.181,1.181,0,0,1,325.648,151.923Z" transform="translate(-309.469 -147.507)" fill="#00d0ac"/>
</svg>