<svg xmlns="http://www.w3.org/2000/svg" width="77.092" height="83.612" viewBox="0 0 77.092 83.612">
  <g id="noun_Location_4090674" transform="translate(-8.773 -3.5)">
    <path id="Path_17919" data-name="Path 17919" d="M26.3,61.916,10.41,84.636a.62.62,0,0,0,.508.976h72.8a.62.62,0,0,0,.508-.976L68.343,61.916a.62.62,0,0,0-.508-.265H57.7c.691-1.005,1.39-2.044,2.088-3.111,8-12.226,12.055-21.987,12.055-29.013a24.527,24.527,0,1,0-49.054,0c0,7.026,4.056,16.787,12.055,29.013.7,1.067,1.4,2.106,2.088,3.111H26.8A.62.62,0,0,0,26.3,61.916ZM24.032,29.527a23.287,23.287,0,1,1,46.573,0c0,14.94-19.937,39.818-23.287,43.891C43.969,69.346,24.032,44.47,24.032,29.527ZM37.795,62.891c4.822,6.889,9,11.84,9.051,11.9a.62.62,0,0,0,.946,0c.05-.059,4.229-5.009,9.051-11.9H67.511l15.018,21.48H12.109l15.018-21.48Z" transform="translate(0)" fill="#00d0ac" stroke="#00d0ac" strokeWidth="3"/>
    <path id="Path_17920" data-name="Path 17920" d="M75.442,35.924a14.049,14.049,0,1,0-14.049,14.05A14.065,14.065,0,0,0,75.442,35.924Zm-26.858,0A12.809,12.809,0,1,1,61.392,48.733,12.824,12.824,0,0,1,48.583,35.924Z" transform="translate(-14.074 -6.411)" fill="#00d0ac" stroke="#00d0ac" strokeWidth="3"/>
  </g>
</svg>
