<svg xmlns="http://www.w3.org/2000/svg" width="20.6" height="24.6" viewBox="0 0 20.6 24.6">
  <g id="Group_2785" data-name="Group 2785" transform="translate(-1.7 0.3)">
    <g id="Group_2784" data-name="Group 2784" transform="translate(-93 -236)">
      <g id="Group_2783" data-name="Group 2783" transform="translate(95 236)">
        <path id="Path_17905" data-name="Path 17905" d="M20,3c0-1.777-2.936-3-6.5-3S7,1.223,7,3s2.936,3,6.5,3S20,4.777,20,3ZM8,3c0-.985,2.436-2,5.5-2S19,2.015,19,3s-2.436,2-5.5,2S8,3.985,8,3Z" fill="#00d0ac" stroke="#00d0ac" strokeWidth="0.6" fill-rule="evenodd"/>
        <path id="Path_17906" data-name="Path 17906" d="M7,6c0,1.777,2.936,3,6.5,3S20,7.777,20,6V3H19V6c0,.985-2.436,2-5.5,2S8,6.985,8,6V3H7Z" fill="#00d0ac" stroke="#00d0ac" strokeWidth="0.6" fill-rule="evenodd"/>
        <path id="Path_17907" data-name="Path 17907" d="M7,9.009S7,9,7,9V6H8V9a.61.61,0,0,0,.006.084C7.682,9.047,7.346,9.022,7,9.009Zm5.02,2.918c.476.048.972.073,1.48.073,3.564,0,6.5-1.223,6.5-3V6H19V9c0,.985-2.436,2-5.5,2a13.433,13.433,0,0,1-1.506-.084A.61.61,0,0,1,12,11C12,11.083,12.007,11.422,12.02,11.927Z" fill="#00d0ac" stroke="#00d0ac" strokeWidth="0.6" fill-rule="evenodd"/>
        <path id="Path_17908" data-name="Path 17908" d="M12.1,14.935c.453.043.922.065,1.4.065,3.564,0,6.5-1.223,6.5-3V9H19v3c0,.985-2.436,2-5.5,2a13.467,13.467,0,0,1-1.43-.075C12.078,14.25,12.087,14.589,12.1,14.935ZM8,9.083V9H7v.009C7.344,9.022,7.678,9.047,8,9.083Z" fill="#00d0ac" stroke="#00d0ac" strokeWidth="0.6" fill-rule="evenodd"/>
        <path id="Path_17909" data-name="Path 17909" d="M13,12c0-1.777-2.936-3-6.5-3S0,10.223,0,12s2.936,3,6.5,3S13,13.777,13,12ZM1,12c0-.985,2.436-2,5.5-2S12,11.015,12,12s-2.436,2-5.5,2S1,12.985,1,12Z" fill="#00d0ac" stroke="#00d0ac" strokeWidth="0.6" fill-rule="evenodd"/>
        <path id="Path_17910" data-name="Path 17910" d="M0,15c0,1.777,2.936,3,6.5,3S13,16.777,13,15V12H12v3c0,.985-2.436,2-5.5,2S1,15.985,1,15V12H0Z" fill="#00d0ac" stroke="#00d0ac" strokeWidth="0.6" fill-rule="evenodd"/>
        <path id="Path_17911" data-name="Path 17911" d="M0,18c0,1.777,2.936,3,6.5,3S13,19.777,13,18V15H12v3c0,.985-2.436,2-5.5,2S1,18.985,1,18V15H0Z" fill="#00d0ac" stroke="#00d0ac" strokeWidth="0.6" fill-rule="evenodd"/>
        <path id="Path_17912" data-name="Path 17912" d="M0,21c0,1.777,2.936,3,6.5,3S13,22.777,13,21V18H12v3c0,.985-2.436,2-5.5,2S1,21.985,1,21V18H0Z" fill="#00d0ac" stroke="#00d0ac" strokeWidth="0.6" fill-rule="evenodd"/>
        <path id="Path_17913" data-name="Path 17913" d="M12.176,17.942c.428.038.871.058,1.324.058,3.564,0,6.5-1.223,6.5-3V12H19v3c0,.985-2.436,2-5.5,2a13.5,13.5,0,0,1-1.351-.067Z" fill="#00d0ac" stroke="#00d0ac" strokeWidth="0.6" fill-rule="evenodd"/>
        <path id="Path_17914" data-name="Path 17914" d="M12.257,20.949c.4.034.818.051,1.243.051,3.564,0,6.5-1.223,6.5-3V15H19v3c0,.985-2.436,2-5.5,2-.438,0-.863-.021-1.27-.059.014.517.024.88.027,1.008Z" fill="#00d0ac" stroke="#00d0ac" strokeWidth="0.6" fill-rule="evenodd"/>
      </g>
    </g>
  </g>
</svg>
