<svg xmlns="http://www.w3.org/2000/svg" width="82.741" height="82.861" viewBox="0 0 82.741 82.861">
  <g id="_013-phone-call" data-name="013-phone-call" transform="translate(0)">
    <g id="Group_2794" data-name="Group 2794" transform="translate(0 0)">
      <path id="Path_17915" data-name="Path 17915" d="M65.771,73.943a8.15,8.15,0,0,0-5.911-2.711,8.427,8.427,0,0,0-5.981,2.693l-5.526,5.509c-.455-.245-.909-.472-1.347-.7-.63-.315-1.224-.612-1.731-.927A60.064,60.064,0,0,1,30.881,64.691a35.435,35.435,0,0,1-4.722-7.45c1.434-1.312,2.763-2.676,4.057-3.987.49-.49.979-1,1.469-1.487,3.673-3.673,3.673-8.429,0-12.1l-4.774-4.774c-.542-.542-1.1-1.1-1.626-1.661-1.049-1.084-2.151-2.2-3.288-3.253a8.278,8.278,0,0,0-5.859-2.571,8.566,8.566,0,0,0-5.946,2.571l-.035.035-5.946,6A12.8,12.8,0,0,0,.416,44.142,30.657,30.657,0,0,0,2.655,57.119C5.488,64.761,9.72,71.844,16.034,79.434a82.3,82.3,0,0,0,27.4,21.458c4.022,1.906,9.391,4.162,15.39,4.547.367.017.752.035,1.1.035a13.178,13.178,0,0,0,10.091-4.337c.017-.035.052-.052.07-.087a39.756,39.756,0,0,1,3.06-3.165c.752-.717,1.521-1.469,2.273-2.256a8.724,8.724,0,0,0,2.641-6.051,8.4,8.4,0,0,0-2.693-6Zm6.261,18.415c-.017,0-.017.017,0,0-.682.735-1.382,1.4-2.134,2.134a45.985,45.985,0,0,0-3.375,3.5,8.431,8.431,0,0,1-6.576,2.781c-.262,0-.542,0-.8-.017-5.194-.332-10.021-2.361-13.641-4.092A77.685,77.685,0,0,1,19.689,76.443C13.725,69.256,9.738,62.61,7.1,55.475,5.471,51.12,4.876,47.728,5.138,44.527a8.028,8.028,0,0,1,2.413-5.194l5.964-5.964a3.975,3.975,0,0,1,2.658-1.242,3.741,3.741,0,0,1,2.553,1.224l.052.052c1.067,1,2.081,2.029,3.148,3.13.542.56,1.1,1.119,1.661,1.7l4.774,4.774c1.854,1.854,1.854,3.568,0,5.421-.507.507-1,1.014-1.5,1.5-1.469,1.5-2.868,2.9-4.39,4.267-.035.035-.07.052-.087.087a3.567,3.567,0,0,0-.909,3.97l.052.157a38.33,38.33,0,0,0,5.649,9.216l.017.017a64.189,64.189,0,0,0,15.53,14.131,23.88,23.88,0,0,0,2.151,1.172c.63.315,1.224.612,1.731.927.07.035.14.087.21.122a3.791,3.791,0,0,0,1.731.437A3.739,3.739,0,0,0,51.2,83.229l5.981-5.981a3.956,3.956,0,0,1,2.641-1.312,3.562,3.562,0,0,1,2.518,1.277l.035.035,9.636,9.636C73.815,88.668,73.815,90.5,72.031,92.358Z" transform="translate(-0.344 -22.613)" fill="#00d0ac"/>
      <path id="Path_17916" data-name="Path 17916" d="M246.887,90.609a22.507,22.507,0,0,1,18.328,18.328,2.347,2.347,0,0,0,2.326,1.959,3.122,3.122,0,0,0,.4-.035,2.363,2.363,0,0,0,1.941-2.728,27.215,27.215,0,0,0-22.175-22.175,2.373,2.373,0,0,0-2.728,1.924A2.335,2.335,0,0,0,246.887,90.609Z" transform="translate(-202.167 -70.898)" fill="#00d0ac"/>
      <path id="Path_17917" data-name="Path 17917" d="M288.033,36.552A44.813,44.813,0,0,0,251.518.036a2.358,2.358,0,1,0-.769,4.652,40.027,40.027,0,0,1,32.633,32.633,2.346,2.346,0,0,0,2.326,1.959,3.122,3.122,0,0,0,.4-.035A2.317,2.317,0,0,0,288.033,36.552Z" transform="translate(-205.329 0)" fill="#00d0ac"/>
    </g>
  </g>
</svg>
