<svg xmlns="http://www.w3.org/2000/svg" width="23.22" height="23.328" viewBox="0 0 23.22 23.328">
  <g id="Group_2780" data-name="Group 2780" transform="translate(-2.725 -2.525)">
    <path id="Path_17903" data-name="Path 17903" d="M25.046,14.653a1.05,1.05,0,0,0-1.179.884,9.477,9.477,0,0,1-2.7,5.4,9.57,9.57,0,1,1,0-13.534l.27.27H19.863a1.056,1.056,0,0,0,0,2.112h4.1a1.048,1.048,0,0,0,1.056-1.056v-4.1a1.056,1.056,0,0,0-2.112,0V6.2l-.27-.27a11.667,11.667,0,1,0,0,16.506,11.484,11.484,0,0,0,3.291-6.583A1.038,1.038,0,0,0,25.046,14.653Z" transform="translate(0)" fill="#00d0ac"/>
    <path id="Path_17904" data-name="Path 17904" d="M51.056,29.992l-3.119-1.425-.049-5.035A1.043,1.043,0,0,0,46.832,22.5h0A1.028,1.028,0,0,0,45.8,23.556l.025,5.7a1,1,0,0,0,.614.933l3.733,1.695a.963.963,0,0,0,.442.1,1.042,1.042,0,0,0,.442-1.99Z" transform="translate(-32.495 -15.069)" fill="#00d0ac"/>
  </g>
</svg>
